<svg width="25" height="27" viewBox="0 0 25 27" fill="none" xmlns="http://www.w3.org/2000/svg">
<path fill-rule="evenodd" clip-rule="evenodd" d="M20.5 15.3333L22.7761 17.6095C23.0262 17.8595 23.1666 18.1987 23.1666 18.5523V19.6667C23.1666 20.4031 22.5697 21 21.8333 21H3.16665C2.43027 21 1.83331 20.4031 1.83331 19.6667V18.5523C1.83331 18.1987 1.97379 17.8595 2.22383 17.6095L4.49998 15.3333V9.66667C4.49998 5.24839 8.0817 1.66667 12.5 1.66667V1.66667C14.6217 1.66667 16.6565 2.50953 18.1568 4.00982C19.6571 5.51011 20.5 7.54494 20.5 9.66667V15.3333Z" stroke="white" stroke-width="2" stroke-linecap="round" stroke-linejoin="round"/>
<path d="M8.5 21V21.3333C8.5 23.5425 10.2909 25.3333 12.5 25.3333C14.7091 25.3333 16.5 23.5425 16.5 21.3333V21" stroke="white" stroke-width="2" stroke-linecap="round" stroke-linejoin="round"/>
</svg>
