<svg width="106" height="36" viewBox="0 0 106 36" fill="none" xmlns="http://www.w3.org/2000/svg">
<path fill-rule="evenodd" clip-rule="evenodd" d="M5.84692 21.2483V28.3355H0V7.66454H16.2119V12.1826H5.84692V16.7302H14.9717V21.2483H5.84692ZM18.9464 7.66454V28.3355H24.6752V17.3196L33.8 28.3355H38.6133V7.66454H32.8845V18.6804L23.7598 7.66454H18.9464ZM48.5255 23.1572V28.3355H42.7376V7.66454H48.5255V16.252L56.5281 7.66454H62.9656L54.5261 16.8073L58.726 22.2582L55.5737 27.0135L50.6963 20.8312L48.5255 23.1572Z" fill="white"/>
<path d="M63.5422 27.9994L59.9436 23.3386L56.7703 27.9994H63.5422Z" fill="#F59E0B"/>
<rect x="69.46" width="35.9998" height="36" rx="4" fill="#F59E0B"/>
<path d="M75.1365 29V8.32907H80.9834V29H75.1365ZM89.5432 29V12.9653H83.1942V8.32907H101.709V12.9653H95.3901V29H89.5432Z" fill="white"/>
</svg>
