<svg width="32" height="32" viewBox="0 0 32 32" fill="none" xmlns="http://www.w3.org/2000/svg">
<path fill-rule="evenodd" clip-rule="evenodd" d="M12.5573 23.164V21.2786H14.9146L16.916 19.2773L19.6787 20.4506C20.68 20.876 21.8386 20.6506 22.6066 19.8813L26.5307 15.9573C27.3 15.188 27.524 14.0293 27.1 13.0293L25.0973 8.31464C24.828 7.67864 24.3213 7.1733 23.6853 6.90264L18.9707 4.89997C17.9693 4.47464 16.812 4.69997 16.0426 5.4693L12.1186 9.3933C11.3506 10.1613 11.1253 11.32 11.5506 12.3213L12.6933 15.0133L4.66132 23.0453V27.288H8.90398L10.672 25.52V23.1626H12.5573V23.164Z" stroke="white" stroke-width="2" stroke-linecap="round" stroke-linejoin="round"/>
<path d="M19.1679 11.8586C18.8492 11.86 18.5906 12.1186 18.5919 12.4373C18.5919 12.756 18.8519 13.0146 19.1706 13.0133C19.4892 13.0133 19.7479 12.7546 19.7479 12.436C19.7479 12.1173 19.4892 11.8586 19.1706 11.8586" stroke="white" stroke-width="2" stroke-linecap="round" stroke-linejoin="round"/>
</svg>
