<svg width="32" height="32" viewBox="0 0 32 32" fill="none" xmlns="http://www.w3.org/2000/svg">
<path d="M20 20H25.3333C26.8061 20 28 18.8061 28 17.3333V9.54901C28 8.84177 27.719 8.16349 27.2189 7.66339L24.3366 4.78104C23.8365 4.28095 23.1582 4 22.451 4H14.6667C13.1939 4 12 5.19391 12 6.66667V12" stroke="white" stroke-width="2" stroke-linecap="round" stroke-linejoin="round"/>
<path fill-rule="evenodd" clip-rule="evenodd" d="M10 21.3333H14C14.7364 21.3333 15.3334 21.9303 15.3334 22.6666V28H8.66669V22.6666C8.66669 21.9303 9.26364 21.3333 10 21.3333Z" stroke="white" stroke-width="2" stroke-linecap="round" stroke-linejoin="round"/>
<path fill-rule="evenodd" clip-rule="evenodd" d="M19.2189 15.6634L16.3366 12.781C15.8365 12.2809 15.1582 12 14.451 12H6.66667C5.19391 12 4 13.1939 4 14.6667V25.3333C4 26.8061 5.19391 28 6.66667 28H17.3333C18.8061 28 20 26.8061 20 25.3333V17.549C20 16.8418 19.719 16.1635 19.2189 15.6634Z" stroke="white" stroke-width="2" stroke-linecap="round" stroke-linejoin="round"/>
</svg>
