<svg width="32" height="32" viewBox="0 0 32 32" fill="none" xmlns="http://www.w3.org/2000/svg">
<path d="M25.3334 7.33331C25.3334 9.17465 21.1547 10.6666 16 10.6666C10.8454 10.6666 6.66669 9.17465 6.66669 7.33331" stroke="white" stroke-width="2" stroke-linecap="round" stroke-linejoin="round"/>
<path d="M25.3334 12.6667C25.3334 14.508 21.1547 16 16 16C10.8454 16 6.66669 14.508 6.66669 12.6667" stroke="white" stroke-width="2" stroke-linecap="round" stroke-linejoin="round"/>
<path fill-rule="evenodd" clip-rule="evenodd" d="M25.3334 18C25.3334 19.8413 21.1547 21.3333 16 21.3333C10.8454 21.3333 6.66669 19.8413 6.66669 18V7.33333C6.66669 5.492 10.8454 4 16 4C21.1547 4 25.3334 5.492 25.3334 7.33333V18Z" stroke="white" stroke-width="2" stroke-linecap="round" stroke-linejoin="round"/>
<path d="M16 21.3333V24.6666" stroke="white" stroke-width="2" stroke-linecap="round" stroke-linejoin="round"/>
<path d="M18 26.6667H26.6667" stroke="white" stroke-width="2" stroke-linecap="round" stroke-linejoin="round"/>
<path d="M5.33331 26.6667H14" stroke="white" stroke-width="2" stroke-linecap="round" stroke-linejoin="round"/>
<path d="M17.4143 25.2524C18.1953 26.0334 18.1953 27.2997 17.4143 28.0808C16.6332 28.8618 15.3669 28.8618 14.5858 28.0808C13.8048 27.2997 13.8048 26.0334 14.5858 25.2524C15.3669 24.4713 16.6332 24.4713 17.4143 25.2524" stroke="white" stroke-width="2" stroke-linecap="round" stroke-linejoin="round"/>
</svg>
