<svg width="32" height="32" viewBox="0 0 32 32" fill="none" xmlns="http://www.w3.org/2000/svg">
<g clip-path="url(#clip0_411_2922)">
<path fill-rule="evenodd" clip-rule="evenodd" d="M15.0218 12.8017L4.86477 22.9589C4.31107 23.5126 4 24.2635 4 25.0466C4 25.8296 4.31107 26.5806 4.86477 27.1343V27.1343C6.01778 28.2873 7.88716 28.2873 9.04017 27.1343L19.1973 16.9772C20.8884 17.5555 22.7414 17.427 24.3364 16.6206C25.9314 15.8143 27.1336 14.3985 27.6707 12.6938C27.9555 11.8378 28.0567 10.9314 27.9678 10.0337C27.8999 9.53073 27.5515 9.11028 27.07 8.94994C26.5884 8.78961 26.0576 8.91735 25.7017 9.27922L23.2958 11.6852C23.1707 11.8103 23.0012 11.8805 22.8243 11.8805C22.6475 11.8805 22.4779 11.8103 22.3529 11.6852L20.3138 9.64612C20.0535 9.38577 20.0528 8.9643 20.5627 8.45448L22.72 6.29726C23.0818 5.9414 23.2096 5.41061 23.0493 4.92907C22.889 4.44753 22.4686 4.09922 21.9656 4.03125C21.0694 3.94252 20.1646 4.04325 19.3098 4.32689C17.604 4.86302 16.1869 6.06506 15.3796 7.66055C14.5723 9.25603 14.4433 11.1098 15.0218 12.8018L15.0218 12.8017Z" stroke="white" stroke-width="2" stroke-linecap="round" stroke-linejoin="round"/>
<path fill-rule="evenodd" clip-rule="evenodd" d="M14.0001 9.26459C14.4023 9.60496 14.6436 10.0982 14.6655 10.6247C14.6874 11.1511 15.1145 12.2894 14.7419 12.6619L12.6666 14.7372C12.2941 15.1098 11.7825 15.3093 11.256 15.2874C10.7296 15.2655 10.2363 15.0242 9.89597 14.622C7.6789 12.0019 7.28729 11.6119 4.66717 9.39484C4.26493 9.05448 4.02358 8.56123 4.00169 8.03476C3.9798 7.50829 4.17935 6.9967 4.55195 6.62411L6.6272 4.54886C6.99979 4.17629 7.51136 3.97674 8.03781 3.99864C8.56426 4.02053 9.0575 4.26186 9.39787 4.66408C11.6149 7.28419 11.3799 7.04753 14.0001 9.26459Z" stroke="white" stroke-width="2" stroke-linecap="round" stroke-linejoin="round"/>
<path d="M23.0868 20.6667H25.2815C25.8555 20.6667 26.3652 21.0341 26.5465 21.5788L27.9633 25.8331C28.043 26.0726 27.9807 26.3366 27.8021 26.5151L26.5126 27.8047C26.3341 27.9832 26.07 28.0456 25.8305 27.9658L21.5762 26.5491C21.0315 26.3678 20.6641 25.8581 20.6641 25.284V23.3769" stroke="white" stroke-width="2" stroke-linecap="round" stroke-linejoin="round"/>
<path d="M20.6596 23.375L16.6641 19.3714" stroke="white" stroke-width="2" stroke-linecap="round" stroke-linejoin="round"/>
<path d="M23.0841 20.6641L19.7579 17.3307" stroke="white" stroke-width="2" stroke-linecap="round" stroke-linejoin="round"/>
</g>
<defs>
<clipPath id="clip0_411_2922">
<rect width="32" height="32" fill="white"/>
</clipPath>
</defs>
</svg>
