<svg width="32" height="32" viewBox="0 0 32 32" fill="none" xmlns="http://www.w3.org/2000/svg">
<path d="M20 22.6666V25.3333C20 26.8061 18.8061 28 17.3334 28H5.33335C3.86059 28 2.66669 26.8061 2.66669 25.3333V16C2.66669 14.5272 3.86059 13.3333 5.33335 13.3333H8.00002" stroke="white" stroke-width="2" stroke-linecap="round" stroke-linejoin="round"/>
<path d="M25.3333 17.3333V20C25.3333 21.4728 24.1394 22.6667 22.6667 22.6667H10.6667C9.19391 22.6667 8 21.4728 8 20V10.6667C8 9.19391 9.19391 8 10.6667 8H13.3333" stroke="white" stroke-width="2" stroke-linecap="round" stroke-linejoin="round"/>
<path fill-rule="evenodd" clip-rule="evenodd" d="M13.3333 5.33335V14.6667C13.3333 16.1394 14.5272 17.3334 16 17.3334H26.6666C28.1394 17.3334 29.3333 16.1394 29.3333 14.6667V9.10459C29.3333 8.39735 29.0524 7.71908 28.5523 7.21898L24.781 3.44774C24.2809 2.94764 23.6027 2.66669 22.8954 2.66669H16C14.5272 2.66669 13.3333 3.86059 13.3333 5.33335Z" stroke="white" stroke-width="2" stroke-linecap="round" stroke-linejoin="round"/>
</svg>
