<svg width="32" height="32" viewBox="0 0 32 32" fill="none" xmlns="http://www.w3.org/2000/svg">
<path fill-rule="evenodd" clip-rule="evenodd" d="M22.896 13.3333H10.6667C9.19333 13.3333 8 14.5266 8 16V25.3333C8 26.8066 9.19333 28 10.6667 28H25.3333C26.8067 28 28 26.8066 28 25.3333V18.4373C28 17.7306 27.7187 17.052 27.2187 16.552L24.7813 14.1146C24.2813 13.6146 23.6027 13.3333 22.896 13.3333Z" stroke="white" stroke-width="2" stroke-linecap="round" stroke-linejoin="round"/>
<path d="M28 18.6666H24C23.264 18.6666 22.6667 18.0693 22.6667 17.3333V13.3333" stroke="white" stroke-width="2" stroke-linecap="round" stroke-linejoin="round"/>
<path d="M18.6667 13.3333V9.104C18.6667 8.39733 18.3853 7.71867 17.8853 7.21867L15.448 4.78133C14.948 4.28133 14.2693 4 13.5627 4H6.66667C5.19333 4 4 5.19333 4 6.66667V21.3333C4 22.8067 5.19333 24 6.66667 24H8" stroke="white" stroke-width="2" stroke-linecap="round" stroke-linejoin="round"/>
<path d="M18.6666 9.33333H14.6666C13.9306 9.33333 13.3333 8.736 13.3333 8V4" stroke="white" stroke-width="2" stroke-linecap="round" stroke-linejoin="round"/>
</svg>
