<svg width="31" height="23" viewBox="0 0 31 23" fill="none" xmlns="http://www.w3.org/2000/svg">
<path fill-rule="evenodd" clip-rule="evenodd" d="M7 2.83447C7 1.57517 8.02103 0.554688 9.28006 0.554688H14.4003C15.6594 0.554688 16.6804 1.57517 16.6804 2.83447V6.77344H17.375V2.83447C17.375 1.57517 18.396 0.554688 19.6551 0.554688H24.7753C26.0344 0.554688 27.0554 1.57517 27.0554 2.83447V6.77344H27.9836C29.2424 6.77344 30.263 7.79395 30.263 9.05283V20.4565C30.263 21.7153 29.2424 22.7359 27.9836 22.7359H2.38095C1.12208 22.7359 0.101562 21.7153 0.101562 20.4565V9.05283C0.101562 7.79395 1.12208 6.77344 2.38095 6.77344H7V2.83447ZM7.9551 8.77344C7.96999 8.7741 7.98495 8.77443 8 8.77443C8.01505 8.77443 8.03001 8.7741 8.0449 8.77344H15.6355C15.6504 8.7741 15.6653 8.77443 15.6804 8.77443C15.6954 8.77443 15.7104 8.7741 15.7253 8.77344H18.3301C18.345 8.7741 18.36 8.77443 18.375 8.77443C18.39 8.77443 18.405 8.7741 18.4199 8.77344H26.0105C26.0254 8.7741 26.0403 8.77443 26.0554 8.77443C26.0704 8.77443 26.0854 8.7741 26.1003 8.77344H27.9836C28.1379 8.77344 28.263 8.89853 28.263 9.05283V20.4565C28.263 20.6108 28.1379 20.7359 27.9836 20.7359H2.38095C2.22665 20.7359 2.10156 20.6108 2.10156 20.4565V9.05283C2.10156 8.89852 2.22665 8.77344 2.38095 8.77344H7.9551ZM25.0554 6.77344V2.83447C25.0554 2.68016 24.9302 2.55469 24.7753 2.55469H19.6551C19.5002 2.55469 19.375 2.68016 19.375 2.83447V6.77344H25.0554ZM14.6804 6.77344H9V2.83447C9 2.68016 9.12518 2.55469 9.28006 2.55469H14.4003C14.5552 2.55469 14.6804 2.68016 14.6804 2.83447V6.77344Z" fill="white"/>
</svg>
