<svg width="32" height="32" viewBox="0 0 32 32" fill="none" xmlns="http://www.w3.org/2000/svg">
<path d="M6.66568 17.3333H4.00004C3.57145 17.3333 3.16898 17.1273 2.91838 16.7796C2.66777 16.4319 2.59959 15.9849 2.73512 15.5783L3.17957 14.245C3.36106 13.7006 3.87058 13.3333 4.44448 13.3333H7.02599" stroke="white" stroke-width="2" stroke-linecap="round" stroke-linejoin="round"/>
<path d="M21.3333 17.3333H25.3333V20C25.3333 20.7364 24.7364 21.3333 24 21.3333H21.3333" stroke="white" stroke-width="2" stroke-linecap="round" stroke-linejoin="round"/>
<path d="M25.3354 5.33331V13.3333H20.9688" stroke="white" stroke-width="2" stroke-linecap="round" stroke-linejoin="round"/>
<path d="M7.02599 25.3333H4.00004C3.57145 25.3333 3.16898 25.1273 2.91838 24.7796C2.66777 24.4319 2.59959 23.9849 2.73512 23.5783L3.17957 22.245C3.36106 21.7006 3.87058 21.3333 4.44448 21.3333H6.66568" stroke="white" stroke-width="2" stroke-linecap="round" stroke-linejoin="round"/>
<path d="M29.336 5.33331V21.3333C29.336 23.5425 27.5452 25.3333 25.336 25.3333H20.9792" stroke="white" stroke-width="2" stroke-linecap="round" stroke-linejoin="round"/>
<rect x="6.66669" y="12" width="14.6667" height="14.6667" rx="2.66667" stroke="white" stroke-width="2" stroke-linecap="round" stroke-linejoin="round"/>
<path d="M10.6667 17.3334H17.3334" stroke="white" stroke-width="2" stroke-linecap="round" stroke-linejoin="round"/>
<path d="M10.6667 21.3334H17.3334" stroke="white" stroke-width="2" stroke-linecap="round" stroke-linejoin="round"/>
</svg>
