<svg width="32" height="32" viewBox="0 0 32 32" fill="none" xmlns="http://www.w3.org/2000/svg">
<path fill-rule="evenodd" clip-rule="evenodd" d="M28 9.33333H4.00002C3.26402 9.33333 2.66669 8.736 2.66669 8V5.33333C2.66669 4.59733 3.26402 4 4.00002 4H28C28.736 4 29.3334 4.59733 29.3334 5.33333V8C29.3334 8.736 28.736 9.33333 28 9.33333Z" stroke="white" stroke-width="2" stroke-linecap="round" stroke-linejoin="round"/>
<path d="M27.556 9.33331V25.3333C27.556 26.8066 26.3627 28 24.8894 28H7.1107C5.63736 28 4.44403 26.8066 4.44403 25.3333V9.33331" stroke="white" stroke-width="2" stroke-linecap="round" stroke-linejoin="round"/>
<path fill-rule="evenodd" clip-rule="evenodd" d="M20 18.6667H12C11.264 18.6667 10.6667 18.0694 10.6667 17.3334V16C10.6667 15.264 11.264 14.6667 12 14.6667H20C20.736 14.6667 21.3334 15.264 21.3334 16V17.3334C21.3334 18.0694 20.736 18.6667 20 18.6667Z" stroke="white" stroke-width="2" stroke-linecap="round" stroke-linejoin="round"/>
</svg>
