<svg width="32" height="32" viewBox="0 0 32 32" fill="none" xmlns="http://www.w3.org/2000/svg">
<path fill-rule="evenodd" clip-rule="evenodd" d="M2.89971 16.1682L4.69025 7.21553C5.06419 5.34584 6.70584 4 8.61257 4H23.3875C25.2942 4 26.9359 5.34584 27.3098 7.21553L29.1003 16.1682C29.2553 16.9431 29.3334 17.7313 29.3334 18.5216V24C29.3334 26.2091 27.5425 28 25.3334 28H6.66669C4.45755 28 2.66669 26.2091 2.66669 24V18.5216C2.66669 17.7313 2.74474 16.9431 2.89971 16.1682Z" stroke="white" stroke-width="2" stroke-linecap="round" stroke-linejoin="round"/>
<path fill-rule="evenodd" clip-rule="evenodd" d="M5.33335 17.3333H26.6667C28.1394 17.3333 29.3334 18.5272 29.3334 20V24C29.3334 26.2091 27.5425 28 25.3334 28H6.66669C4.45755 28 2.66669 26.2091 2.66669 24V20C2.66669 18.5272 3.86059 17.3333 5.33335 17.3333Z" stroke="white" stroke-width="2" stroke-linecap="round" stroke-linejoin="round"/>
<path d="M16 22.6667H8" stroke="white" stroke-width="2" stroke-linecap="round" stroke-linejoin="round"/>
<path d="M20 22.6665H20.0066L20 22.6667L19.9933 22.6666H20" stroke="white" stroke-width="2" stroke-linecap="round" stroke-linejoin="round"/>
<path d="M24 22.6666L24.0066 22.6667L24 22.6667L23.9933 22.6667L24 22.6666" stroke="white" stroke-width="2" stroke-linecap="round" stroke-linejoin="round"/>
</svg>
