<svg width="40" height="41" viewBox="0 0 40 41" fill="none" xmlns="http://www.w3.org/2000/svg">
<path d="M20.0037 12.6504C22.0496 12.6504 23.7086 14.3094 23.7086 16.3553C23.7086 18.4011 22.0496 20.0601 20.0037 20.0601C17.9579 20.0601 16.2988 18.4028 16.2988 16.3553C16.2988 14.3077 17.9579 12.6504 20.0037 12.6504" stroke="#F59E0B" stroke-width="2.5" stroke-linecap="round" stroke-linejoin="round"/>
<path fill-rule="evenodd" clip-rule="evenodd" d="M33.3379 19.7224C33.3379 27.0055 28.0741 33.8317 20.8661 35.8725C20.3025 36.0326 19.6956 36.0326 19.132 35.8725C11.924 33.8333 6.66016 27.0055 6.66016 19.7224V13.0063C6.66016 11.6524 7.47883 10.4319 8.73269 9.92003L16.8427 6.60198C18.8669 5.7733 21.1345 5.7733 23.157 6.60198L31.2671 9.92003C32.5193 10.4319 33.3379 11.6524 33.3379 13.0063V19.7224Z" stroke="#F59E0B" stroke-width="2.5" stroke-linecap="round" stroke-linejoin="round"/>
<path d="M26.669 25.9863C26.4756 25.4977 26.1738 25.0609 25.7886 24.7041V24.7041C25.1367 24.1005 24.2863 23.7637 23.3976 23.7637C21.9153 23.7637 18.0854 23.7637 16.6031 23.7637C15.7144 23.7637 14.8624 24.1005 14.2104 24.7041V24.7041C13.8253 25.0609 13.5252 25.4977 13.3301 25.9863" stroke="#F59E0B" stroke-width="2.5" stroke-linecap="round" stroke-linejoin="round"/>
</svg>
