<svg width="45" height="61" viewBox="0 0 45 61" fill="none" xmlns="http://www.w3.org/2000/svg">
<path fill-rule="evenodd" clip-rule="evenodd" d="M-3.05176e-05 32L-3.07274e-05 36.8C-3.09325e-05 41.4933 0.938636 45.6107 2.81597 49.152C4.6933 52.736 7.33864 55.488 10.752 57.408C14.1653 59.3707 18.0693 60.352 22.464 60.352C26.9013 60.352 30.8053 59.3707 34.176 57.408C37.5893 55.488 40.2346 52.7573 42.112 49.216C43.9893 45.6747 44.928 41.536 44.928 36.8L44.928 32L35.584 32L35.584 36.096C35.584 40.2347 34.432 43.456 32.128 45.76C29.824 48.064 26.6026 49.216 22.464 49.216C18.3253 49.216 15.1253 48.064 12.864 45.76C10.6026 43.456 9.47197 40.2347 9.47197 36.096L9.47197 32L-3.05176e-05 32Z" fill="#2563EB"/>
<rect x="31.928" y="30" width="8" height="8" rx="2.18182" transform="rotate(90 31.928 30)" fill="#2563EB"/>
<rect x="20.928" y="30" width="8" height="8" rx="2.18182" transform="rotate(90 20.928 30)" fill="#2563EB"/>
<rect x="42.928" y="20" width="8" height="8" rx="2.18182" transform="rotate(90 42.928 20)" fill="#2563EB"/>
<rect x="20.928" y="20" width="8" height="8" rx="2.18182" transform="rotate(90 20.928 20)" fill="#2563EB"/>
<rect x="31.928" y="10" width="8" height="8" rx="2.18182" transform="rotate(90 31.928 10)" fill="#2563EB"/>
<rect x="9.92798" y="10" width="8" height="8" rx="2.18182" transform="rotate(90 9.92798 10)" fill="#2563EB"/>
<rect x="42.928" width="8" height="8" rx="2.18182" transform="rotate(90 42.928 0)" fill="#2563EB"/>
<rect x="20.928" width="8" height="8" rx="2.18182" transform="rotate(90 20.928 0)" fill="#2563EB"/>
</svg>
