<svg width="32" height="33" viewBox="0 0 32 33" fill="none" xmlns="http://www.w3.org/2000/svg">
<path fill-rule="evenodd" clip-rule="evenodd" d="M24.552 9.15198L20.7813 5.38131C20.2813 4.88131 19.6026 4.59998 18.896 4.59998H9.33329C7.85996 4.59998 6.66663 5.79331 6.66663 7.26664V25.9333C6.66663 27.4066 7.85996 28.6 9.33329 28.6H22.6666C24.14 28.6 25.3333 27.4066 25.3333 25.9333V11.0373C25.3333 10.3306 25.052 9.65198 24.552 9.15198V9.15198Z" stroke="#1F2937" stroke-width="2" stroke-linecap="round" stroke-linejoin="round"/>
<path d="M25.3333 11.2666H20C19.264 11.2666 18.6666 10.6693 18.6666 9.93331V4.59998" stroke="#1F2937" stroke-width="2" stroke-linecap="round" stroke-linejoin="round"/>
<path d="M16 15.2667V24.6" stroke="#1F2937" stroke-width="2" stroke-linecap="round" stroke-linejoin="round"/>
<path d="M10.6666 19.9333H21.3333" stroke="#1F2937" stroke-width="2" stroke-linecap="round" stroke-linejoin="round"/>
<path fill-rule="evenodd" clip-rule="evenodd" d="M20 24.6H12C11.264 24.6 10.6666 24.0027 10.6666 23.2667V16.6C10.6666 15.864 11.264 15.2667 12 15.2667H20C20.736 15.2667 21.3333 15.864 21.3333 16.6V23.2667C21.3333 24.0027 20.736 24.6 20 24.6Z" stroke="#1F2937" stroke-width="2" stroke-linecap="round" stroke-linejoin="round"/>
</svg>
