<svg width="30" height="22" viewBox="0 0 30 22" fill="none" xmlns="http://www.w3.org/2000/svg">
<path fill-rule="evenodd" clip-rule="evenodd" d="M24.4489 17.8358V4.75C24.4489 2.54086 22.6581 0.75 20.4489 0.75H12.149C11.5967 0.75 11.149 1.19772 11.149 1.75C11.149 2.30228 11.5967 2.75 12.149 2.75H20.4489C21.5535 2.75 22.4489 3.64543 22.4489 4.75V17.8358L19.1551 14.5419C18.7645 14.1514 18.1314 14.1514 17.7408 14.5419C17.3503 14.9324 17.3503 15.5656 17.7408 15.9561L22.7395 20.9548C22.7469 20.9622 22.7543 20.9694 22.7618 20.9766C22.941 21.1461 23.1828 21.25 23.4489 21.25C23.5835 21.25 23.7118 21.2234 23.8289 21.1753C23.9479 21.1265 24.0594 21.0537 24.1561 20.9571L29.1571 15.9561C29.5476 15.5656 29.5476 14.9324 29.1571 14.5419C28.7665 14.1514 28.1334 14.1514 27.7428 14.5419L24.4489 17.8358ZM5.34897 4.51119V16.75C5.34897 18.9591 7.13983 20.75 9.34897 20.75H17.649C18.2012 20.75 18.649 20.3023 18.649 19.75C18.649 19.1977 18.2012 18.75 17.649 18.75H9.34897C8.2444 18.75 7.34897 17.8546 7.34897 16.75V4.51121L10.6429 7.80509C11.0334 8.19562 11.6665 8.19562 12.0571 7.80509C12.4476 7.41457 12.4476 6.7814 12.0571 6.39088L7.05607 1.38988C6.66554 0.999353 6.03238 0.999353 5.64186 1.38988L0.640854 6.39088C0.25033 6.7814 0.25033 7.41457 0.640854 7.80509C1.03138 8.19562 1.66454 8.19562 2.05507 7.80509L5.34897 4.51119Z" fill="#1F2937"/>
</svg>
