<svg width="33" height="33" viewBox="0 0 33 33" fill="none" xmlns="http://www.w3.org/2000/svg">
<path fill-rule="evenodd" clip-rule="evenodd" d="M23.0667 17.9333H9.73336C6.78802 17.9333 4.40002 20.3213 4.40002 23.2666V23.2666C4.40002 26.212 6.78802 28.6 9.73336 28.6H23.0667C26.012 28.6 28.4 26.212 28.4 23.2666V23.2666C28.4 20.3213 26.012 17.9333 23.0667 17.9333Z" stroke="#1F2937" stroke-width="2" stroke-linecap="round" stroke-linejoin="round"/>
<path d="M15.0667 23.2666H23.0667" stroke="#1F2937" stroke-width="2" stroke-linecap="round" stroke-linejoin="round"/>
<path d="M9.78004 23.22C9.80671 23.2466 9.80671 23.288 9.78004 23.3146C9.75337 23.3413 9.71204 23.3413 9.68537 23.3146C9.65871 23.288 9.65871 23.2466 9.68537 23.22C9.71204 23.1933 9.75471 23.1933 9.78004 23.22" stroke="#1F2937" stroke-width="2" stroke-linecap="round" stroke-linejoin="round"/>
<path d="M12.4 8.59998L16.4 4.59998L20.4 8.59998" stroke="#1F2937" stroke-width="2" stroke-linecap="round" stroke-linejoin="round"/>
<path d="M16.4001 13.9333V4.59998" stroke="#1F2937" stroke-width="2" stroke-linecap="round" stroke-linejoin="round"/>
</svg>
