<svg width="25" height="28" viewBox="0 0 25 28" fill="none" xmlns="http://www.w3.org/2000/svg">
<path fill-rule="evenodd" clip-rule="evenodd" d="M9.13339 2C8.58168 2 8.13339 2.44828 8.13339 3C8.13339 3.55172 8.58168 4 9.13339 4H15.8001C16.3518 4 16.8001 3.55172 16.8001 3C16.8001 2.44828 16.3518 2 15.8001 2H9.13339ZM4.46672 4H6.30424C6.71627 5.16495 7.82771 6 9.13339 6H15.8001C17.4563 6 18.8001 4.65628 18.8001 3C18.8001 1.34372 17.4563 0 15.8001 0H9.13339C7.82771 0 6.71627 0.835054 6.30424 2H4.46672C2.4411 2 0.800049 3.64105 0.800049 5.66667V24.3333C0.800049 26.359 2.4411 28 4.46672 28H20.4667C22.4923 28 24.1334 26.359 24.1334 24.3333V23V5.39999C24.1334 4.84771 23.6857 4.39999 23.1334 4.39999C22.5811 4.39999 22.1334 4.84771 22.1334 5.39999V23V24.3333C22.1334 25.2544 21.3878 26 20.4667 26H4.46672C3.54567 26 2.80005 25.2544 2.80005 24.3333V5.66667C2.80005 4.74562 3.54567 4 4.46672 4ZM8.80005 8.66667C8.24776 8.66667 7.80005 9.11438 7.80005 9.66667C7.80005 10.219 8.24776 10.6667 8.80005 10.6667H16.8C17.3523 10.6667 17.8 10.219 17.8 9.66667C17.8 9.11438 17.3523 8.66667 16.8 8.66667H8.80005ZM8.80005 15C8.80005 14.4477 9.24776 14 9.80005 14H15.1334C15.6857 14 16.1334 14.4477 16.1334 15C16.1334 15.5523 15.6857 16 15.1334 16H9.80005C9.24776 16 8.80005 15.5523 8.80005 15ZM10.8 18.9C10.2478 18.9 9.80005 19.3477 9.80005 19.9C9.80005 20.4523 10.2478 20.9 10.8 20.9H13.8C14.3523 20.9 14.8 20.4523 14.8 19.9C14.8 19.3477 14.3523 18.9 13.8 18.9H10.8Z" fill="#1F2937"/>
<path d="M17.8 2.59998H20.4667C21.94 2.59998 23.1334 3.79331 23.1334 5.26664" stroke="#1F2937" stroke-width="2" stroke-linecap="round" stroke-linejoin="round"/>
</svg>
