<svg width="29" height="29" viewBox="0 0 29 29" fill="none" xmlns="http://www.w3.org/2000/svg">
<g clip-path="url(#clip0_479_3266)">
<path d="M25.4001 7.13331H26.3334V6.7467L26.0602 6.47335L25.4001 7.13331ZM19.8001 1.53331L20.4602 0.873343L20.1867 0.599976H19.8001V1.53331ZM12.3334 12.7333V11.8H11.4001V12.7333H12.3334ZM12.3334 16.4666H11.4001V17.4H12.3334V16.4666ZM16.0668 16.4666H17.0001V15.5333H16.0668V16.4666ZM16.0668 20.2V21.1333H17.0001V20.2H16.0668ZM19.8001 18.3333H18.8668V18.7199L19.1401 18.9933L19.8001 18.3333ZM21.6668 20.2L21.0067 20.86L21.6668 21.5199L22.3268 20.86L21.6668 20.2ZM23.5334 18.3333L24.1935 18.9933L24.4668 18.7199V18.3333H23.5334ZM4.86677 12.7333V11.8H3.93344V12.7333H4.86677ZM4.86677 20.2H3.93344V21.1333H4.86677V20.2ZM3.93344 9.93331V3.39998H2.06677V9.93331H3.93344ZM24.4668 7.13331V9.93331H26.3334V7.13331H24.4668ZM4.86677 2.46664H19.8001V0.599976H4.86677V2.46664ZM19.1401 2.19327L24.7401 7.79327L26.0602 6.47335L20.4602 0.873343L19.1401 2.19327ZM3.93344 3.39998C3.93344 2.88451 4.35131 2.46664 4.86677 2.46664V0.599976C3.32037 0.599976 2.06677 1.85358 2.06677 3.39998H3.93344ZM2.06677 23V25.8H3.93344V23H2.06677ZM4.86677 28.6H23.5334V26.7333H4.86677V28.6ZM26.3334 25.8V23H24.4668V25.8H26.3334ZM23.5334 28.6C25.0798 28.6 26.3334 27.3463 26.3334 25.8H24.4668C24.4668 26.3154 24.0488 26.7333 23.5334 26.7333V28.6ZM2.06677 25.8C2.06677 27.3463 3.32037 28.6 4.86677 28.6V26.7333C4.35131 26.7333 3.93344 26.3154 3.93344 25.8H2.06677ZM17.0001 11.8H12.3334V13.6666H17.0001V11.8ZM11.4001 12.7333V16.4666H13.2668V12.7333H11.4001ZM12.3334 17.4H16.0668V15.5333H12.3334V17.4ZM15.1334 16.4666V20.2H17.0001V16.4666H15.1334ZM16.0668 19.2666H11.4001V21.1333H16.0668V19.2666ZM18.8668 11.8V18.3333H20.7334V11.8H18.8668ZM19.1401 18.9933L21.0067 20.86L22.3268 19.5399L20.4602 17.6733L19.1401 18.9933ZM22.3268 20.86L24.1935 18.9933L22.8734 17.6733L21.0067 19.5399L22.3268 20.86ZM24.4668 18.3333V11.8H22.6001V18.3333H24.4668ZM9.53344 11.8H4.86677V13.6666H9.53344V11.8ZM3.93344 12.7333V20.2H5.80011V12.7333H3.93344ZM4.86677 21.1333H9.53344V19.2666H4.86677V21.1333Z" fill="#1F2937"/>
</g>
<defs>
<clipPath id="clip0_479_3266">
<rect width="28" height="28" fill="white" transform="translate(0.200073 0.599976)"/>
</clipPath>
</defs>
</svg>
