<svg width="912" height="659" viewBox="0 0 912 659" fill="none" xmlns="http://www.w3.org/2000/svg">
<g style="mix-blend-mode:soft-light" opacity="0.72" clip-path="url(#clip0_557_1523)">
<path d="M911.998 294.21C854.541 281.39 809.36 269.037 772.875 259.057C645.214 224.144 623.654 218.248 554.748 322.82C548.531 332.255 541.863 341.409 534.755 350.253C480.1 418.268 399.688 467.701 299.072 486.625C198.438 505.555 77.5835 493.973 -57.9395 439.951C-79.9506 431.178 -102.357 421.28 -125.13 410.209C-256.044 346.571 -425.155 303.314 -569.002 291.969L-569.002 292.56C-425.285 303.905 -256.332 347.127 -125.531 410.711C-102.752 421.784 -80.3292 431.688 -58.2852 440.476C77.4139 494.566 198.448 506.159 299.249 487.198C400.069 468.234 480.64 418.707 535.399 350.564C542.508 341.717 549.188 332.548 555.422 323.088C624.026 218.973 645.497 224.845 772.627 259.613C809.168 269.606 854.428 281.981 912 294.822L912 294.21L911.998 294.21Z" fill="#E0EEFF"/>
<path d="M911.998 266.62C860.627 255.94 819.393 245.582 785.568 237.083C656.796 204.73 635.048 199.265 569.616 305.179C563.713 314.736 557.348 324.018 550.536 333C498.144 402.083 419.388 453.105 319.43 474.033C219.454 494.965 98.2546 485.8 -39.0049 434.502C-61.2975 426.17 -84.0229 416.723 -107.153 406.111C-244.525 343.089 -421.928 302.629 -569 296.036L-569 296.626C-422.052 303.218 -244.8 343.647 -107.538 406.618C-84.3998 417.234 -61.6547 426.689 -39.3309 435.033C98.1081 486.396 219.485 495.569 319.626 474.604C419.787 453.633 498.697 402.515 551.188 333.301C558.004 324.314 564.378 315.015 570.297 305.434C635.443 199.984 657.1 205.426 785.336 237.644C819.215 246.156 860.521 256.533 912 267.23L912 266.621L911.998 266.62Z" fill="#E0EEFF"/>
<path d="M912 239.778C866.284 230.981 828.859 222.399 797.68 215.246C667.883 185.474 645.961 180.446 584.047 287.63C578.457 297.307 572.401 306.714 565.891 315.824C515.795 385.929 438.749 438.506 339.515 461.424C240.263 484.345 118.802 477.6 -20.105 429.061C-42.6724 421.175 -65.7007 412.185 -89.1702 402.041C-233.187 339.787 -419.117 302.461 -568.998 300.97L-568.998 301.557C-419.235 303.049 -233.449 340.348 -89.5372 402.554C-66.0497 412.707 -43.0016 421.705 -20.4144 429.597C118.672 478.2 240.312 484.948 339.729 461.988C439.164 439.026 516.362 386.349 566.552 316.11C573.072 306.986 579.138 297.562 584.736 287.87C646.381 181.155 668.211 186.162 797.466 215.811C828.696 222.975 866.189 231.574 912 240.383L912 239.776L912 239.778Z" fill="#E0EEFF"/>
<path d="M912 213.655C871.535 206.506 837.773 199.491 809.215 193.555C678.477 166.384 656.399 161.795 598.038 270.181C592.767 279.97 587.024 289.496 580.82 298.728C533.055 369.81 457.769 423.907 359.322 448.797C260.86 473.692 139.217 469.373 -1.2478 423.621C-24.0736 416.186 -47.3917 407.659 -71.1804 397.989C-222.056 336.658 -416.783 302.822 -569 306.794L-569 307.383C-416.898 303.41 -222.305 337.22 -71.531 398.509C-47.711 408.193 -24.3732 416.726 -1.53912 424.164C139.105 469.976 260.928 474.293 359.556 449.357C458.199 424.416 533.634 370.216 581.49 299C587.711 289.741 593.464 280.202 598.738 270.406C656.84 162.497 678.828 167.065 809.02 194.125C837.623 200.069 871.448 207.097 912 214.259L912 213.655Z" fill="#E0EEFF"/>
<path d="M912 188.23C876.396 182.51 846.15 176.867 820.18 172.021C688.589 147.468 666.366 143.322 611.602 252.836C606.657 262.722 601.231 272.359 595.33 281.717C549.926 353.731 476.449 409.311 378.858 436.158C281.248 463.011 159.503 461.122 17.5749 418.188C-5.48468 411.214 -29.076 403.155 -53.1808 393.96C-211.161 333.705 -414.998 303.745 -569 313.562L-569 314.153C-415.114 304.332 -211.398 334.269 -53.5133 394.489C-29.3871 403.692 -5.77606 411.757 17.3016 418.738C159.41 461.727 281.337 463.611 379.109 436.715C476.898 409.813 550.52 354.126 596.01 281.976C601.921 272.601 607.358 262.949 612.308 253.048C666.83 144.013 688.963 148.143 820.004 172.594C846.018 177.448 876.32 183.101 912 188.83L912 188.23Z" fill="#E0EEFF"/>
<path d="M912 163.472C880.891 158.982 854.006 154.531 830.58 150.651C698.222 128.732 675.868 125.031 624.737 235.603C620.12 245.584 615.014 255.327 609.424 264.799C566.411 337.694 494.791 394.723 398.118 423.511C301.426 452.302 179.659 452.846 36.3613 412.759C13.0795 406.247 -10.7702 398.661 -35.1713 389.951C-198.578 331.622 -408.821 305.866 -563.473 320.769C-565.323 320.947 -567.165 321.132 -569 321.321L-569 321.917C-567.135 321.722 -565.264 321.536 -563.382 321.354C-408.852 306.462 -198.771 332.201 -35.4857 390.485C-11.0632 399.202 12.8063 406.794 36.1062 413.312C179.589 453.451 301.536 452.902 398.388 424.063C495.257 395.217 567.017 338.078 610.112 265.044C615.71 255.554 620.826 245.798 625.448 235.8C676.356 125.714 698.617 129.399 830.422 151.227C853.889 155.114 880.824 159.573 912 164.07L912 163.471L912 163.472Z" fill="#E0EEFF"/>
<path d="M912 139.37C885.041 135.928 861.354 132.498 840.416 129.466C707.379 110.196 684.912 106.943 637.445 218.498C633.158 228.572 628.373 238.414 623.099 247.992C582.506 321.722 512.794 380.164 417.102 410.869C321.394 441.581 199.685 444.554 55.1098 407.34C31.6173 401.294 7.5257 394.186 -17.152 385.967C-182.429 330.918 -393.452 309.368 -547.562 327.353C-554.839 328.202 -561.988 329.141 -569.002 330.166L-569.002 330.765C-561.955 329.732 -554.768 328.788 -547.453 327.936C-393.466 309.964 -182.605 331.501 -17.4498 386.507C7.25415 394.736 31.3655 401.849 54.8712 407.898C199.629 445.158 321.519 442.174 417.388 411.411C513.274 380.643 583.126 322.089 623.797 248.219C629.083 238.619 633.874 228.763 638.164 218.679C685.422 107.611 707.797 110.852 840.278 130.042C861.252 133.081 884.983 136.518 911.998 139.965L911.998 139.367L912 139.37Z" fill="#E0EEFF"/>
<path d="M912 115.894C888.865 113.333 868.215 110.767 849.703 108.467C716.073 91.8599 693.504 89.055 649.736 201.52C645.782 211.681 641.324 221.613 636.37 231.291C598.222 305.806 530.461 365.619 435.813 398.225C341.148 430.837 219.577 436.239 73.8239 401.924C50.1339 396.347 25.815 389.723 0.878908 382.002C-166.161 330.271 -377.826 312.938 -531.291 333.995C-544.299 335.779 -556.892 337.84 -569.002 340.179L-569.002 340.788C-556.852 338.437 -544.217 336.368 -531.161 334.576C-377.817 313.537 -166.316 330.856 0.599123 382.55C25.5747 390.283 49.9116 396.913 73.6033 402.49C219.544 436.848 341.295 431.433 436.116 398.767C530.955 366.094 598.85 306.166 637.071 231.51C642.039 221.803 646.506 211.854 650.46 201.693C694.038 89.7184 716.513 92.5118 849.583 109.05C868.126 111.354 888.815 113.925 911.998 116.49L911.998 115.896L912 115.894Z" fill="#E0EEFF"/>
<path d="M912 93.0341C892.376 91.202 874.597 89.3552 858.441 87.6762C724.31 73.7407 701.656 71.3884 661.612 184.691C657.999 194.913 653.869 204.931 649.23 214.717C613.554 289.97 547.789 351.116 454.25 385.601C360.693 420.092 239.34 427.919 92.5034 396.525C68.6553 391.426 44.1274 385.289 18.9263 378.063C-149.763 329.684 -361.93 316.583 -514.652 340.695C-533.766 343.713 -551.949 347.313 -569 351.503L-569 352.118C-551.909 347.912 -533.677 344.299 -514.504 341.272C-361.908 317.179 -149.903 330.273 18.6646 378.616C43.8673 385.844 68.4182 391.986 92.3025 397.092C239.33 428.526 360.86 420.681 454.573 386.134C548.303 351.58 614.199 290.315 649.943 214.921C654.583 205.132 658.72 195.098 662.341 184.846C702.21 72.0386 724.77 74.3843 858.344 88.2605C874.528 89.9411 892.34 91.7913 912 93.6267L912 93.0341Z" fill="#E0EEFF"/>
<path d="M-569 641.127C-563.38 647.019 -558.027 652.717 -552.956 658.22L-552.044 658.22C-557.387 652.414 -563.048 646.388 -569 640.151L-569 641.127ZM912 70.7546C895.595 69.5119 880.521 68.251 866.64 67.0905C732.091 55.8381 709.367 53.9369 673.075 168.002C669.799 178.3 666.002 188.397 661.689 198.266C628.508 274.207 564.781 336.645 472.409 372.985C380.021 409.333 258.967 419.578 111.142 391.125C87.1257 386.502 62.4019 380.858 36.9802 374.139C-133.251 329.142 -345.782 320.28 -497.657 347.432C-523.337 352.023 -547.284 357.644 -569.002 364.294L-569.002 364.928C-547.246 358.251 -523.241 352.61 -497.487 348.006C-345.736 320.876 -133.368 329.732 36.7366 374.695C62.1781 381.419 86.9232 387.069 110.961 391.696C258.975 420.184 380.207 409.918 472.75 373.51C565.31 337.096 629.163 274.538 662.407 198.454C666.726 188.569 670.529 178.454 673.811 168.142C709.945 54.5772 732.573 56.4686 866.559 67.6749C880.462 68.837 895.564 70.1011 912 71.3456L912 70.7546Z" fill="#E0EEFF"/>
<path d="M-569 622.843C-555.912 635.389 -543.878 647.177 -532.953 658.22L-532.012 658.22C-543.195 646.902 -555.545 634.803 -569 621.911L-569 622.843ZM912 49.048C898.54 48.2695 885.997 47.4744 874.305 46.7321C739.428 38.1676 716.65 36.7224 684.133 151.474C681.197 161.839 677.735 172.01 673.752 181.955C643.087 258.533 581.443 322.222 490.3 360.394C399.142 398.573 278.466 411.231 129.75 385.739C105.594 381.599 80.6929 376.45 55.0523 370.239C-116.608 328.657 -329.359 324.04 -480.289 354.215C-513.138 360.781 -543.062 368.998 -569 378.84L-569 379.495C-543.034 369.616 -513.044 361.37 -480.102 354.785C-329.295 324.634 -116.709 329.249 54.8268 370.802C80.4772 377.016 105.4 382.168 129.586 386.315C278.493 411.842 399.346 399.157 490.658 360.915C581.986 322.665 643.752 258.853 674.474 182.13C678.468 172.158 681.936 161.971 684.874 151.599C717.249 37.3495 739.933 38.7898 874.244 47.3181C885.955 48.0621 898.517 48.8588 911.998 49.6373L911.998 49.0464L912 49.048Z" fill="#E0EEFF"/>
<path d="M-569 607.387C-548.355 625.771 -529.756 642.698 -513.327 658.22L-512.363 658.22C-529.044 642.443 -547.965 625.222 -568.998 606.494L-568.998 607.388L-569 607.387ZM912 27.8913C901.222 27.465 891.046 27.0239 881.446 26.6058C746.331 20.7376 723.512 19.7466 694.793 135.11C692.201 145.525 689.075 155.76 685.419 165.79C657.291 242.953 597.768 307.852 507.915 347.832C418.047 387.818 297.827 402.881 148.319 380.364C124.032 376.707 98.969 372.057 73.1358 366.36C-99.8415 328.216 -312.675 327.847 -462.56 361.025C-503.4 370.065 -539.573 381.599 -569 395.539L-569 396.229C-539.565 382.234 -503.316 370.661 -462.352 361.593C-312.589 328.443 -99.9189 328.812 72.9301 366.928C98.7797 372.628 123.864 377.281 148.176 380.944C297.877 403.488 418.271 388.395 508.29 348.344C598.324 308.284 657.966 243.259 686.148 165.949C689.807 155.907 692.938 145.655 695.536 135.222C724.129 20.3655 746.853 21.3516 881.403 27.195C891.016 27.6115 901.205 28.0543 911.998 28.4806L911.998 27.8913L912 27.8913Z" fill="#E0EEFF"/>
<path d="M-569 594.1C-567.086 595.772 -565.122 597.451 -563.107 599.137C-537.348 620.685 -514.303 640.344 -494.109 658.22L-493.114 658.22C-513.418 640.229 -536.611 620.44 -562.554 598.735C-564.766 596.885 -566.911 595.044 -569.002 593.212L-569.002 594.101L-569 594.1ZM912 7.26471C903.653 7.09021 895.679 6.90417 888.066 6.72479C752.803 3.55444 729.96 3.01946 705.056 118.917C702.809 129.374 700.023 139.67 696.696 149.772C671.123 227.474 613.763 293.54 525.259 335.299C436.739 377.066 317.058 394.522 166.856 374.998C142.459 371.826 117.25 367.678 91.2343 362.5C-82.9431 327.822 -295.719 331.702 -444.458 367.859C-494.523 380.03 -537.338 395.86 -569 415.109L-569 415.857C-537.369 396.525 -494.46 380.633 -444.232 368.422C-295.613 332.293 -83.0024 328.418 91.0482 363.071C117.072 368.253 142.303 372.404 166.732 375.579C317.127 395.129 436.985 377.638 525.653 335.802C614.337 293.958 671.813 227.764 697.433 149.918C700.76 139.81 703.552 129.497 705.805 119.015C730.6 3.62359 753.348 4.15691 888.047 7.31402C895.668 7.49182 903.646 7.67944 912 7.85394L912 7.26471Z" fill="#E0EEFF"/>
<path d="M-568.999 579.195C-560.092 588.661 -549.452 598.36 -536.967 608.282C-514.36 626.245 -493.784 642.866 -475.314 658.22L-474.285 658.22C-492.887 642.745 -513.624 625.989 -536.427 607.869C-549.174 597.739 -559.991 587.846 -568.999 578.197L-568.999 579.195ZM763.906 -0.00274665C737.077 14.0332 725.767 43.0745 714.932 102.909C713.031 113.41 710.585 123.758 707.596 133.919C684.595 212.105 629.431 279.295 542.335 322.807C455.223 366.327 336.155 386.167 185.36 369.649C160.864 366.964 135.527 363.321 109.352 358.663C-65.9135 327.473 -278.491 335.598 -425.988 374.713C-482.918 389.811 -530.165 409.529 -561.845 433.387C-564.326 435.255 -566.709 437.148 -568.997 439.068L-568.997 439.938C-566.549 437.866 -563.991 435.823 -561.317 433.808C-529.721 410.015 -482.573 390.341 -425.744 375.27C-278.366 336.186 -65.9513 328.068 109.184 359.236C135.374 363.896 160.734 367.543 185.256 370.23C336.246 386.771 455.488 366.893 542.745 323.301C630.019 279.7 685.292 212.381 708.335 134.049C711.327 123.874 713.778 113.509 715.683 102.986C726.611 42.6416 738.031 13.7599 765.504 -0.00604248L763.906 -0.00604255L763.906 -0.00274665Z" fill="#E0EEFF"/>
<path d="M-569.001 556.627C-557.567 575.876 -538.404 596.132 -510.39 617.281C-491.143 631.811 -473.33 645.44 -456.979 658.22L-455.917 658.22C-472.417 645.313 -490.407 631.544 -509.861 616.858C-538.378 595.333 -557.696 574.744 -569.001 555.213L-569.001 556.627ZM750.755 -0.00274662C737.761 17.35 730.713 44.4523 724.421 87.0851C722.864 97.6281 720.762 108.023 718.11 118.235C697.698 196.854 644.769 265.122 559.138 310.359C473.492 355.603 355.119 377.813 203.827 364.31C179.241 362.116 153.792 358.979 127.48 354.846C-48.7587 327.165 -260.998 339.531 -407.154 381.576C-463.568 397.804 -510.148 418.459 -541.029 442.942C-552.7 452.195 -562.127 461.992 -569.001 472.306L-569.001 473.603C-562.11 462.965 -552.493 452.87 -540.489 443.356C-509.69 418.938 -463.206 398.329 -406.892 382.131C-260.851 340.118 -48.7734 327.761 127.331 355.423C153.677 359.561 179.146 362.701 203.741 364.896C355.226 378.419 473.772 356.166 559.562 310.846C645.368 265.517 698.402 197.117 718.853 118.35C721.511 108.113 723.618 97.7038 725.175 87.1526C731.493 44.337 738.579 17.2545 751.734 -0.00274658L750.755 -0.00274662Z" fill="#E0EEFF"/>
<path d="M748.346 -0.00433353C741.403 16.9945 737.127 40.0327 733.538 71.4575C732.332 82.017 730.572 92.448 728.254 102.723C710.443 181.722 659.784 251.026 575.673 297.956C491.547 344.895 373.945 369.463 222.259 358.982C197.626 357.28 172.082 354.653 145.627 351.045C-31.464 326.891 -243.226 343.489 -387.949 388.44C-443.809 405.789 -489.693 427.366 -519.756 452.457C-549.863 477.584 -564.113 506.233 -556.654 537.694C-550.134 565.198 -527.012 594.837 -483.374 626.127C-467.7 637.366 -452.953 648.052 -439.138 658.22L-438.038 658.22C-452.025 647.921 -466.964 637.091 -482.859 625.694C-526.369 594.495 -549.417 564.968 -555.909 537.589C-563.321 506.332 -549.143 477.85 -519.202 452.86C-489.216 427.835 -443.427 406.305 -387.669 388.986C-243.063 344.072 -31.464 327.488 145.497 351.624C171.954 355.232 197.52 357.863 222.195 359.566C374.078 370.06 491.851 345.452 576.116 298.435C660.399 251.409 711.157 181.972 729.003 102.823C731.319 92.5484 733.084 82.0992 734.292 71.5085C737.892 39.9948 742.187 16.9566 749.189 -0.00268555L748.346 -0.00268558L748.346 -0.00433353Z" fill="#E0EEFF"/>
<path d="M750.045 -0.00433353C746.48 14.9106 744.129 33.2805 742.286 56.0339C741.428 66.6181 740.012 77.0837 738.037 87.3946C722.838 166.723 674.483 237.014 591.948 285.608C509.399 334.211 392.647 361.117 240.665 353.669C215.975 352.459 190.352 350.342 163.795 347.264C-14.0354 326.652 -225.181 347.471 -368.373 395.297C-423.64 413.756 -468.796 436.241 -498.023 461.926C-527.29 487.646 -540.592 516.57 -532.097 547.87C-524.67 575.236 -500.578 604.402 -455.92 634.811C-444.036 642.904 -432.68 650.698 -421.832 658.22L-420.698 658.22C-431.738 650.561 -443.307 642.619 -455.422 634.369C-499.946 604.048 -523.962 574.992 -531.354 547.75C-539.794 516.649 -526.562 487.895 -497.455 462.316C-468.309 436.702 -423.245 414.266 -368.072 395.841C-224.995 348.056 -14.014 327.253 163.684 347.85C190.26 350.93 215.904 353.048 240.618 354.26C392.797 361.718 509.718 334.765 592.406 286.082C675.109 237.39 723.56 166.963 738.788 87.4819C740.765 77.1578 742.184 66.6774 743.043 56.0735C744.89 33.2756 747.247 14.8974 750.837 -0.0010376L750.045 -0.00103763L750.045 -0.00433353Z" fill="#E0EEFF"/>
<path d="M-10.1232 658.22C67.9014 601.953 122.623 536.186 141.63 471.561C154.899 426.444 151.001 390.81 147.906 362.524C139.873 289.096 137.293 265.481 459.967 254.011C683.633 246.061 825.976 234.519 905.51 198.222C907.724 197.211 909.882 196.177 912 195.129L912 193.837C909.659 195.009 907.259 196.156 904.799 197.279C825.516 233.461 683.35 244.975 459.903 252.917C135.765 264.438 138.376 288.328 146.504 362.617C149.59 390.828 153.478 426.367 140.259 471.312C121.224 536.037 66.2159 601.923 -12.2021 658.218L-10.1215 658.218L-10.1232 658.22Z" fill="#E0EEFF"/>
<path d="M-59.0341 658.22C31.3244 600.287 95.7708 529.704 118.091 459.851C132.442 414.936 129.403 379.255 126.988 350.925C120.722 277.394 118.707 253.747 441.604 246.971C665.423 242.275 808.015 232.805 888.41 197.674C896.973 193.931 904.825 189.896 912 185.549L912 184.155C904.649 188.675 896.565 192.854 887.721 196.719C807.583 231.74 665.164 241.186 441.566 245.877C117.207 252.682 119.245 276.607 125.584 350.999C127.992 379.252 131.024 414.838 116.727 459.586C94.37 529.556 29.5731 600.277 -61.2513 658.22L-59.0341 658.22Z" fill="#E0EEFF"/>
<path d="M-111.607 658.22C-7.30194 599.276 68.4742 523.632 94.5379 448.123C109.966 403.424 107.785 367.705 106.05 339.346C101.555 265.738 100.108 242.064 423.113 239.987C647.005 238.547 789.8 231.153 871.025 197.196C887.026 190.507 900.627 182.785 912 173.888L912 172.316C900.524 181.485 886.699 189.401 870.36 196.233C789.394 230.083 646.773 237.456 423.1 238.894C98.6348 240.981 100.097 264.93 104.646 339.404C106.375 367.686 108.551 403.314 93.1798 447.843C67.0685 523.486 -9.1405 599.295 -113.999 658.22L-111.607 658.22Z" fill="#E0EEFF"/>
<path d="M-168.806 658.22C-48.5585 599.166 40.6329 518.116 70.9664 436.376C87.4649 391.911 86.1431 356.166 85.0928 327.786C82.367 254.122 81.4929 230.432 404.49 233.052C628.38 234.87 771.328 229.553 853.354 196.783C878.393 186.78 897.745 174.227 912 158.558L912 156.614C897.765 172.767 878.203 185.626 852.707 195.814C770.941 228.48 628.169 233.777 404.502 231.963C80.0444 229.331 80.9317 253.297 83.6904 327.819C84.7373 356.123 86.0574 391.772 69.6166 436.073C39.2189 517.986 -50.5305 599.23 -171.45 658.22L-168.806 658.22Z" fill="#E0EEFF"/>
<path d="M-232.173 658.218C-222.644 654.245 -213.272 650.136 -204.068 645.899C-79.2317 588.408 14.5243 507.306 47.3796 424.605C64.9447 380.389 64.4821 344.63 64.1134 316.241C63.1604 242.552 62.8542 218.852 385.731 226.17C609.539 231.243 752.591 228.006 835.387 196.436C872.29 182.365 897.218 162.685 911.995 135.647L911.995 132.714C897.519 160.809 872.43 181.09 834.763 195.451C752.225 226.924 609.349 230.142 385.766 225.076C61.4304 217.724 61.7381 241.699 62.7044 316.25C63.0714 344.564 63.5323 380.226 46.0314 424.283C13.2783 506.729 -80.2424 587.604 -204.789 644.961C-214.722 649.535 -224.856 653.957 -235.169 658.22L-232.177 658.22L-232.173 658.218Z" fill="#E0EEFF"/>
<path d="M912 15.1443C911.496 10.2061 910.902 5.15765 910.217 -0.00274666L908.805 -0.00274672C910.308 11.3024 911.381 22.0709 912 32.3209L912 15.1443ZM-304.509 658.22C-279.77 649.828 -255.85 640.522 -232.942 630.415C-106.745 574.749 -11.055 495.025 23.7822 412.816C42.4072 368.863 42.8056 333.103 43.1184 304.713C43.9348 231.023 44.1998 207.323 366.845 219.336C590.489 227.661 733.594 226.506 817.138 196.144C875.112 175.077 904.407 140.004 912 84.3823L912 70.5999C907.511 133.812 878.587 172.606 816.542 195.154C733.263 225.42 590.335 226.56 366.912 218.243C42.8089 206.175 42.5406 230.152 41.7142 304.703C41.4015 333.016 41.0048 368.679 22.4472 412.472C-12.2812 494.428 -107.733 573.929 -233.635 629.465C-257.413 639.954 -282.279 649.586 -308.025 658.22L-304.509 658.22Z" fill="#E0EEFF"/>
<path d="M-392.084 658.22C-346.253 646.714 -302.469 632.023 -261.743 614.833C-134.228 561.012 -36.6398 482.695 0.167675 401.004C19.8496 357.326 21.1054 321.58 22.103 293.201C24.6922 219.535 25.5252 195.843 347.824 212.544C571.23 224.122 714.337 225.049 798.595 195.907C882.692 166.823 908.176 107.914 896.247 -0.0027467L894.836 -0.00274676C906.729 107.435 881.474 166.048 798.022 194.91C714.029 223.96 571.097 223.021 347.913 211.456C24.1557 194.678 23.3112 218.644 20.694 293.171C19.6998 321.477 18.4471 357.13 -1.15905 400.64C-37.8512 482.076 -135.197 560.174 -262.414 613.87C-304.311 631.554 -349.449 646.584 -396.723 658.218L-392.086 658.218L-392.084 658.22Z" fill="#E0EEFF"/>
<path d="M-519.434 658.22C-437.855 647.934 -359.891 627.166 -290.459 599.155C-161.677 547.199 -62.2205 470.313 -23.4559 389.171C-2.73046 345.791 -0.61528 310.068 1.06368 281.706C5.42244 208.09 6.82656 184.415 328.666 205.802C551.756 220.626 694.818 223.634 779.763 195.725C864.879 167.758 891.653 108.884 882.001 -0.00274666L880.59 -0.00274673C890.215 108.393 863.671 166.965 779.211 194.717C694.533 222.539 551.651 219.523 328.787 204.714C5.4883 183.231 4.06942 207.181 -0.340377 281.657C-2.01604 309.941 -4.12468 345.568 -24.7761 388.792C-63.4205 469.678 -162.627 546.349 -291.111 598.183C-362.951 627.167 -443.946 648.375 -528.617 658.22L-519.434 658.22Z" fill="#E0EEFF"/>
<path d="M-569 641.073C-480.153 633.079 -394.76 612.522 -319.106 583.382C-189.096 533.307 -87.8107 457.882 -47.1005 377.319C-25.3363 334.248 -22.3618 298.562 -20.0013 270.23C-13.8731 196.689 -11.9012 173.04 309.371 199.104C532.061 217.171 675.024 222.257 760.629 195.586C846.434 168.851 874.611 110.344 867.548 1.2561C867.52 0.836365 867.497 0.416626 867.472 -0.00311284L866.063 -0.0031129C866.09 0.434692 866.113 0.872558 866.141 1.31042C873.168 109.859 845.226 168.048 760.102 194.57C674.777 221.154 531.99 216.061 309.516 198.014C-13.2098 171.832 -15.2015 195.759 -21.4022 270.157C-23.756 298.412 -26.7206 334 -48.409 376.917C-88.9908 457.226 -190.024 532.441 -319.733 582.399C-395.205 611.468 -480.378 631.98 -569 639.97L-569 641.071L-569 641.073Z" fill="#E0EEFF"/>
<path d="M-569.002 618.82C-490.691 610.399 -415.427 592.393 -347.67 567.513C-216.476 519.338 -113.396 445.399 -70.7544 365.443C-47.9566 322.692 -44.1262 287.058 -41.0859 258.767C-33.1898 185.329 -30.6516 161.714 289.937 192.444C512.155 213.746 654.97 220.913 741.2 195.491C827.634 170.01 857.212 111.921 852.775 2.74976C852.737 1.83124 852.705 0.914368 852.679 0.000854469L851.27 0.000854408C851.296 0.927551 851.328 1.85596 851.366 2.7876C855.782 111.419 826.446 169.192 740.7 194.471C654.748 219.81 512.109 212.642 290.109 191.36C-31.9322 160.488 -34.5018 184.382 -42.49 258.678C-45.5221 286.897 -49.3442 322.437 -72.0564 365.025C-114.562 444.732 -217.385 518.464 -348.271 566.527C-415.85 591.343 -490.907 609.306 -569.002 617.719L-569.002 618.824L-569.002 618.82Z" fill="#E0EEFF"/>
<path d="M-568.997 596.418C-501.122 587.966 -435.831 572.423 -376.139 551.556C-243.812 505.297 -138.97 432.871 -94.415 353.548C-70.5932 311.135 -65.9069 275.562 -62.1852 247.321C-52.5261 174.011 -49.4184 150.434 270.374 185.823C492.04 210.352 634.657 219.595 721.487 195.431C808.517 171.211 839.484 113.564 837.672 4.34692C837.647 2.89185 837.641 1.4433 837.644 -0.00195313L836.238 -0.00195319C836.237 1.44824 836.243 2.90167 836.266 4.36176C838.072 113.038 807.348 170.375 721.008 194.404C634.465 218.487 492.023 209.245 270.571 184.738C-50.671 149.188 -53.8134 173.041 -63.586 247.209C-67.2995 275.376 -71.9727 310.857 -95.7038 353.108C-140.118 432.183 -244.697 504.405 -376.717 550.556C-436.235 571.362 -501.326 586.866 -568.996 595.309L-568.996 596.418L-568.997 596.418Z" fill="#E0EEFF"/>
<path d="M-568.997 573.854C-511.45 565.737 -455.988 552.595 -404.527 535.499C-271.114 491.174 -164.55 420.284 -118.095 341.624C-93.2598 299.567 -87.7175 264.068 -83.3192 235.884C-71.8989 162.729 -68.2265 139.202 250.662 179.235C471.701 206.985 614.07 218.3 701.464 195.403C789.062 172.452 821.412 115.265 822.225 6.04248C822.24 4.01617 822.283 2.0014 822.35 -0.003479L820.941 -0.00347907C820.875 1.99976 820.831 4.01288 820.816 6.03754C820.008 114.722 787.915 171.599 701.011 194.368C613.904 217.19 471.709 205.877 250.884 178.156C-69.4446 137.941 -73.1598 161.743 -84.7151 235.754C-89.1018 263.862 -94.6293 299.267 -119.374 341.168C-165.681 419.581 -271.979 490.272 -405.085 534.495C-456.376 551.535 -511.647 564.639 -568.999 572.745L-568.999 573.856L-568.997 573.854Z" fill="#E0EEFF"/>
<path d="M-569 551.189C-521.658 543.746 -475.9 532.934 -432.832 519.362C-298.372 476.985 -190.123 407.656 -141.788 329.688C-115.945 288 -109.55 252.586 -104.474 224.472C-91.2972 151.494 -87.0585 128.024 230.81 172.689C451.144 203.648 593.22 217.03 681.144 195.411C769.277 173.739 802.996 117.032 806.435 7.83783C806.517 5.20575 806.646 2.59509 806.814 0.000915527L805.408 0.000915466C805.24 2.58685 805.113 5.19092 805.031 7.81311C801.609 116.466 768.153 172.868 680.717 194.369C593.072 215.921 451.175 202.543 231.06 171.614C-88.2486 126.747 -92.5366 150.49 -105.866 224.32C-110.93 252.359 -117.306 287.679 -143.054 329.212C-191.239 406.939 -299.217 476.071 -433.362 518.35C-476.267 531.873 -521.846 542.644 -569 550.075L-569 551.191L-569 551.189Z" fill="#E0EEFF"/>
<path d="M-569 528.4C-531.731 521.944 -495.554 513.426 -461.042 503.128C-325.584 462.712 -215.687 394.972 -165.486 317.719C-138.645 276.413 -131.399 241.101 -125.648 213.063C-110.72 140.29 -105.917 116.886 210.82 166.166C430.375 200.325 572.103 215.771 660.529 195.432C749.169 175.046 784.247 118.84 790.309 9.71472C790.49 6.44397 790.74 3.20453 791.055 -0.00531006L789.644 -0.00531012C789.333 3.19135 789.084 6.41595 788.903 9.67187C782.871 118.256 748.065 174.16 660.128 194.386C571.978 214.66 430.43 199.22 211.097 165.096C-107.077 115.594 -111.936 139.271 -127.039 212.892C-132.775 240.852 -140 276.073 -166.742 317.222C-216.788 394.236 -326.407 461.787 -461.545 502.107C-495.9 512.359 -531.907 520.843 -569 527.28L-569 528.401L-569 528.4Z" fill="#E0EEFF"/>
</g>
<defs>
<clipPath id="clip0_557_1523">
<rect width="658.223" height="1481" fill="white" transform="matrix(4.37114e-08 -1 -1 -4.37114e-08 912 658.223)"/>
</clipPath>
</defs>
</svg>
