<svg width="41" height="40" viewBox="0 0 41 40" fill="none" xmlns="http://www.w3.org/2000/svg">
<path fill-rule="evenodd" clip-rule="evenodd" d="M14.3691 25.6549L17.0058 31.6699V36.6699H24.9625V31.6699L27.5991 25.6549L20.9841 16.6699L14.3691 25.6549Z" stroke="#1F2937" stroke-width="2.5" stroke-linecap="round" stroke-linejoin="round"/>
<path fill-rule="evenodd" clip-rule="evenodd" d="M19.8001 9.61451L18.0317 7.84617C17.3801 7.19451 17.3801 6.13951 18.0317 5.48951L19.8001 3.72117C20.4517 3.06951 21.5067 3.06951 22.1567 3.72117L23.9251 5.48951C24.5767 6.14117 24.5767 7.19617 23.9251 7.84617L22.1567 9.61451C21.5067 10.2645 20.4501 10.2645 19.8001 9.61451Z" stroke="#1F2937" stroke-width="2.5" stroke-linecap="round" stroke-linejoin="round"/>
<path fill-rule="evenodd" clip-rule="evenodd" d="M33.0671 17.0801H35.5671C36.4871 17.0801 37.2337 17.8267 37.2337 18.7467V21.2467C37.2337 22.1667 36.4871 22.9134 35.5671 22.9134H33.0671C32.1471 22.9134 31.4004 22.1667 31.4004 21.2467V18.7467C31.4004 17.8267 32.1471 17.0801 33.0671 17.0801Z" stroke="#1F2937" stroke-width="2.5" stroke-linecap="round" stroke-linejoin="round"/>
<path d="M16.9961 31.6634H24.9628" stroke="#1F2937" stroke-width="2.5" stroke-linecap="round" stroke-linejoin="round"/>
<path d="M20.9837 25.5199V16.6699" stroke="#1F2937" stroke-width="2.5" stroke-linecap="round" stroke-linejoin="round"/>
<path fill-rule="evenodd" clip-rule="evenodd" d="M8.89714 17.0801H6.39714C5.47714 17.0801 4.73047 17.8267 4.73047 18.7467V21.2467C4.73047 22.1667 5.47714 22.9134 6.39714 22.9134H8.89714C9.81714 22.9134 10.5638 22.1667 10.5638 21.2467V18.7467C10.5638 17.8267 9.81714 17.0801 8.89714 17.0801Z" stroke="#1F2937" stroke-width="2.5" stroke-linecap="round" stroke-linejoin="round"/>
<path d="M31.8841 17.5736L23.0508 8.74023" stroke="#1F2937" stroke-width="2.5" stroke-linecap="round" stroke-linejoin="round"/>
<path d="M10.082 17.5736L18.9154 8.74023" stroke="#1F2937" stroke-width="2.5" stroke-linecap="round" stroke-linejoin="round"/>
</svg>
