<svg width="40" height="41" viewBox="0 0 40 41" fill="none" xmlns="http://www.w3.org/2000/svg">
<path d="M8.02667 28.9995C6.13667 26.4895 5 23.3845 5 20.0195C5 11.7695 11.75 5.01953 20 5.01953" stroke="#F59E0B" stroke-width="2.5" stroke-linecap="round" stroke-linejoin="round"/>
<path d="M8.01758 28.9995C10.7609 32.6429 15.1059 35.0195 19.9909 35.0195C28.2409 35.0195 34.9909 28.2695 34.9909 20.0195C34.9909 11.7695 28.2409 5.01953 19.9909 5.01953" stroke="#F59E0B" stroke-width="2.5" stroke-linecap="round" stroke-linejoin="round"/>
<path d="M27.0711 12.9485C30.9763 16.8537 30.9763 23.1854 27.0711 27.0906C23.1658 30.9959 16.8342 30.9959 12.9289 27.0906C9.02369 23.1854 9.02369 16.8537 12.9289 12.9485C16.8342 9.04322 23.1658 9.04322 27.0711 12.9485" stroke="#F59E0B" stroke-width="2.5" stroke-linecap="round" stroke-linejoin="round"/>
<path d="M20.0033 24.4414C19.9566 24.4414 19.9199 24.4781 19.9199 24.5247C19.9199 24.5714 19.9566 24.6081 20.0033 24.6081C20.0499 24.6081 20.0866 24.5714 20.0866 24.5247C20.0866 24.4781 20.0499 24.4414 20.0033 24.4414V24.4414" stroke="#F59E0B" stroke-width="2.5" stroke-linecap="round" stroke-linejoin="round"/>
<path d="M20.0154 20.9529C21.4171 20.9529 22.5538 19.8413 22.6088 18.4529C22.6088 17.0146 21.4421 15.8496 20.0054 15.8496C18.6038 15.8496 17.4671 16.9613 17.4121 18.3496" stroke="#F59E0B" stroke-width="2.5" stroke-linecap="round" stroke-linejoin="round"/>
</svg>
