<svg width="10" height="14" viewBox="0 0 10 14" fill="none" xmlns="http://www.w3.org/2000/svg">
<path fill-rule="evenodd" clip-rule="evenodd" d="M0.21967 8.16968C0.512563 7.87679 0.987437 7.87679 1.28033 8.16968L4.75 11.6394L8.21967 8.16968C8.51256 7.87679 8.98744 7.87679 9.28033 8.16968C9.57322 8.46258 9.57322 8.93745 9.28033 9.23034L5.28033 13.2303C4.98744 13.5232 4.51256 13.5232 4.21967 13.2303L0.21967 9.23034C-0.0732233 8.93745 -0.0732233 8.46258 0.21967 8.16968Z" fill="#F59E0B"/>
<path fill-rule="evenodd" clip-rule="evenodd" d="M0.21967 6.23034C0.512563 6.52324 0.987437 6.52324 1.28033 6.23034L4.75 2.76067L8.21967 6.23034C8.51256 6.52324 8.98744 6.52324 9.28033 6.23034C9.57322 5.93745 9.57322 5.46258 9.28033 5.16968L5.28033 1.16968C4.98744 0.876789 4.51256 0.876789 4.21967 1.16968L0.21967 5.16968C-0.0732233 5.46258 -0.0732233 5.93745 0.21967 6.23034Z" fill="#F59E0B"/>
</svg>
