<svg width="960" height="666" viewBox="0 0 960 666" fill="none" xmlns="http://www.w3.org/2000/svg">
<g clip-path="url(#clip0_411_3127)">
<path d="M-229.998 240.23C-146.935 258.762 -81.6194 276.621 -28.8753 291.049C155.678 341.52 186.846 350.044 286.459 198.87C295.447 185.23 305.086 171.997 315.362 159.211C394.374 60.8856 510.621 -10.5765 656.077 -37.9349C801.557 -65.3004 976.27 -48.5574 1172.19 29.539C1204.01 42.2224 1236.4 56.531 1269.32 72.5362C1458.58 164.534 1703.05 227.068 1911 243.468L1911 242.614C1703.24 226.214 1458.99 163.73 1269.9 71.8105C1236.97 55.8028 1204.56 41.4847 1172.69 28.7799C976.515 -49.4141 801.542 -66.1737 655.82 -38.763C510.071 -11.3475 393.594 60.2503 314.431 158.761C304.154 171.552 294.497 184.806 285.486 198.482C186.308 348.995 155.269 340.507 -28.516 290.244C-81.341 275.798 -146.771 257.908 -230 239.344L-230 240.23L-229.998 240.23Z" fill="#E0EEFF"/>
<path d="M-229.998 280.115C-155.732 295.554 -96.1231 310.529 -47.2245 322.815C138.935 369.586 170.374 377.486 264.966 224.373C273.499 210.557 282.701 197.138 292.548 184.153C368.289 84.2826 482.141 10.5242 626.646 -19.7302C771.176 -49.9917 946.387 -36.742 1144.82 37.4162C1177.04 49.4618 1209.9 63.1184 1243.33 78.4598C1441.92 169.568 1698.39 228.059 1911 237.589L1911 236.737C1698.57 227.207 1442.32 168.761 1243.89 77.7269C1210.44 62.3807 1177.56 48.7123 1145.29 36.65C946.599 -37.6034 771.131 -50.865 626.362 -20.5559C481.566 9.76037 367.489 83.6592 291.606 183.717C281.752 196.71 272.538 210.152 263.981 224.004C169.803 376.447 138.495 368.58 -46.889 322.003C-95.8661 309.698 -155.58 294.697 -230 279.232L-230 280.113L-229.998 280.115Z" fill="#E0EEFF"/>
<path d="M-230 318.919C-163.911 331.636 -109.808 344.043 -64.7337 354.383C122.906 397.423 154.597 404.692 244.104 249.742C252.185 235.752 260.94 222.152 270.351 208.984C342.772 107.636 454.152 31.6288 597.61 -1.50255C741.093 -34.6386 916.682 -24.8869 1117.49 45.283C1150.12 56.6838 1183.41 69.6788 1217.34 84.3443C1425.53 174.341 1694.32 228.301 1911 230.457L1911 229.608C1694.49 227.452 1425.91 173.53 1217.87 83.6019C1183.91 68.9244 1150.59 55.9175 1117.94 44.5073C916.87 -25.7555 741.022 -35.5095 597.3 -2.31874C453.553 30.8768 341.951 107.029 269.395 208.57C259.969 221.76 251.2 235.383 243.107 249.394C153.991 403.667 122.432 396.428 -64.4243 353.566C-109.573 343.21 -163.773 330.779 -230 318.043L-230 318.922L-230 318.919Z" fill="#E0EEFF"/>
<path d="M-230 356.683C-171.502 367.018 -122.694 377.159 -81.41 385.74C107.591 425.021 139.508 431.655 223.877 274.967C231.497 260.816 239.799 247.045 248.768 233.698C317.82 130.939 426.656 52.7329 568.976 16.7508C711.317 -19.2384 887.17 -12.9943 1090.23 53.147C1123.23 63.8957 1156.94 76.2221 1191.33 90.2023C1409.44 178.864 1690.95 227.78 1911 222.038L1911 221.186C1691.11 226.93 1409.8 178.053 1191.84 89.4503C1157.4 75.4511 1123.66 63.1152 1090.65 52.3617C887.332 -13.8652 711.219 -20.107 568.638 15.9417C426.035 51.9976 316.982 130.351 247.8 233.305C238.807 246.69 230.49 260.48 222.866 274.641C138.871 430.639 107.084 424.035 -81.1268 384.917C-122.477 376.324 -171.376 366.163 -230 355.81L-230 356.683Z" fill="#E0EEFF"/>
<path d="M-230 393.439C-178.529 401.709 -134.804 409.866 -97.2606 416.871C92.9727 452.366 125.1 458.36 204.269 300.042C211.418 285.75 219.261 271.818 227.792 258.289C293.431 154.184 399.652 73.8339 540.735 35.0225C681.843 -3.79613 857.844 -1.06669 1063.02 61.0007C1096.36 71.0831 1130.46 82.7337 1165.31 96.0262C1393.69 183.134 1688.37 226.446 1911 212.254L1911 211.399C1688.53 225.596 1394.03 182.318 1165.79 95.2623C1130.91 81.9579 1096.78 70.2979 1063.42 60.2059C857.977 -1.94 681.715 -4.66468 540.37 34.2182C399.002 73.1081 292.572 153.613 226.809 257.916C218.264 271.468 210.404 285.422 203.249 299.735C124.429 457.361 92.4325 451.39 -97.0059 416.043C-134.613 409.026 -178.42 400.854 -230 392.571L-230 393.439Z" fill="#E0EEFF"/>
<path d="M-230 429.229C-185.028 435.721 -146.162 442.156 -112.295 447.764C79.0472 479.451 111.362 484.803 185.28 324.955C191.955 310.525 199.337 296.44 207.418 282.748C269.599 177.367 373.136 94.9227 512.891 53.3057C652.674 11.684 828.706 10.8987 1035.86 68.8494C1069.52 78.2631 1104 89.2307 1139.27 101.821C1375.5 186.145 1679.44 223.379 1903.01 201.834C1905.68 201.577 1908.35 201.31 1911 201.037L1911 200.175C1908.3 200.456 1905.6 200.725 1902.88 200.989C1679.48 222.518 1375.78 185.308 1139.73 101.05C1104.42 88.4478 1069.91 77.4731 1036.23 68.0498C828.805 10.023 652.514 10.8178 512.5 52.5086C372.463 94.2089 268.724 176.812 206.423 282.393C198.33 296.112 190.934 310.216 184.252 324.669C110.658 483.815 78.4761 478.487 -112.067 446.931C-145.993 441.313 -184.93 434.867 -230 428.366L-230 429.232L-230 429.229Z" fill="#E0EEFF"/>
<path d="M-230 464.073C-191.027 469.048 -156.784 474.007 -126.515 478.391C65.8094 506.249 98.2887 510.951 166.91 349.682C173.106 335.119 180.024 320.891 187.648 307.044C246.331 200.457 347.11 115.971 485.447 71.5819C623.807 27.1831 799.755 22.8856 1008.76 76.6838C1042.72 85.4241 1077.55 95.6993 1113.22 107.581C1352.16 187.162 1657.22 218.316 1880.01 192.316C1890.53 191.088 1900.86 189.732 1911 188.25L1911 187.383C1900.82 188.878 1890.43 190.241 1879.85 191.474C1657.24 217.454 1352.41 186.32 1113.65 106.8C1077.94 94.9045 1043.08 84.6222 1009.1 75.8771C799.836 22.0122 623.626 26.3265 485.033 70.799C346.416 115.279 245.434 199.926 186.639 306.716C178.998 320.594 172.071 334.843 165.87 349.42C97.551 509.985 65.205 505.299 -126.316 477.558C-156.637 473.165 -190.943 468.196 -229.998 463.213L-229.998 464.077L-230 464.073Z" fill="#E0EEFF"/>
<path d="M-230 498.011C-196.555 501.714 -166.702 505.423 -139.941 508.748C53.2403 532.756 85.8672 536.811 149.141 374.226C154.857 359.537 161.301 345.178 168.463 331.188C223.611 223.466 321.57 136.998 458.398 89.8601C595.249 42.7153 770.998 34.9054 981.705 84.5132C1015.95 92.5753 1051.11 102.151 1087.16 113.314C1328.64 188.098 1634.63 213.155 1856.49 182.715C1875.29 180.135 1893.5 177.156 1911 173.775L1911 172.894C1893.44 176.292 1875.17 179.284 1856.3 181.875C1634.62 212.289 1328.86 187.253 1087.56 112.521C1051.46 101.342 1016.27 91.7567 982.024 83.6946C771.045 34.0249 595.037 41.8539 457.96 89.0772C320.856 136.31 222.704 222.945 167.45 330.872C160.268 344.904 153.81 359.287 148.094 373.976C85.0962 535.852 52.605 531.813 -139.768 507.905C-166.574 504.574 -196.483 500.857 -229.998 497.15L-229.998 498.009L-230 498.011Z" fill="#E0EEFF"/>
<path d="M-230 531.058C-201.63 533.707 -175.928 536.377 -152.572 538.804C41.3327 558.95 74.0833 562.35 131.972 398.554C137.195 383.777 143.166 369.295 149.872 355.148C201.447 246.359 296.52 157.964 431.744 108.111C566.994 58.2486 742.428 46.9336 954.701 92.3176C989.177 99.6896 1024.64 108.561 1061.07 119.007C1304.93 188.946 1611.65 207.886 1832.43 173.029C1860.06 168.665 1886.35 163.461 1911 157.405L1911 156.515C1886.29 162.595 1859.94 167.818 1832.22 172.194C1611.62 207.024 1305.13 188.095 1061.45 118.208C1025.01 107.759 989.52 98.8805 954.991 91.499C742.442 46.0555 566.753 57.3967 431.277 107.34C295.777 157.293 200.514 245.86 148.841 354.853C142.133 369.004 136.153 383.511 130.918 398.331C73.2814 561.41 40.6688 558.019 -152.432 537.959C-175.828 535.53 -201.578 532.855 -230 530.202L-230 531.058Z" fill="#E0EEFF"/>
<path d="M1911 -261.29C1902.88 -269.807 1895.14 -278.045 1887.81 -286L1886.49 -286C1894.21 -277.607 1902.4 -268.895 1911 -259.879L1911 -261.29ZM-230 563.266C-206.285 565.063 -184.492 566.886 -164.425 568.563C30.0843 584.83 62.9348 587.579 115.401 422.681C120.136 407.795 125.626 393.198 131.86 378.93C179.828 269.147 271.955 178.883 405.492 126.349C539.052 73.8019 714.053 58.9913 927.757 100.125C962.475 106.807 998.217 114.967 1034.97 124.68C1281.06 189.729 1588.31 202.541 1807.86 163.29C1844.99 156.653 1879.61 148.527 1911 138.913L1911 137.997C1879.55 147.648 1844.85 155.803 1807.62 162.459C1588.24 201.68 1281.23 188.878 1035.32 123.876C998.541 114.155 962.768 105.989 928.019 99.2995C714.042 58.1156 538.783 72.9572 404.999 125.589C271.191 178.231 178.881 268.668 130.823 378.659C124.579 392.948 119.082 407.571 114.337 422.479C62.0996 586.653 29.3871 583.919 -164.308 567.719C-184.407 566.039 -206.24 564.211 -230 562.412L-230 563.266Z" fill="#E0EEFF"/>
<path d="M1911 -234.857C1892.08 -252.995 1874.68 -270.035 1858.89 -286L1857.53 -286C1873.69 -269.638 1891.55 -252.148 1911 -233.51L1911 -234.857ZM-230 594.646C-210.542 595.772 -192.409 596.921 -175.507 597.995C19.4784 610.376 52.4074 612.465 99.4142 446.575C103.659 431.591 108.664 416.887 114.422 402.51C158.752 291.805 247.869 199.733 379.628 144.55C511.411 89.3575 685.865 71.0583 900.855 107.911C935.776 113.896 971.775 121.339 1008.84 130.318C1257 190.431 1564.56 197.106 1782.76 153.483C1830.24 143.991 1873.5 132.112 1911 117.884L1911 116.937C1873.46 131.22 1830.11 143.139 1782.48 152.66C1564.47 196.247 1257.15 189.575 1009.17 129.504C972.087 120.521 936.057 113.073 901.093 107.078C685.827 70.1754 511.115 88.5127 379.111 143.798C247.083 199.093 157.791 291.344 113.378 402.257C107.605 416.673 102.591 431.4 98.3434 446.394C51.5412 611.558 18.7478 609.476 -175.419 597.147C-192.347 596.072 -210.509 594.92 -229.998 593.794L-229.998 594.649L-230 594.646Z" fill="#E0EEFF"/>
<path d="M1911 -212.513C1881.15 -239.091 1854.27 -263.56 1830.52 -286L1829.12 -286C1853.24 -263.191 1880.59 -238.296 1911 -211.223L1911 -212.515L1911 -212.513ZM-230 625.232C-214.418 625.848 -199.708 626.486 -185.83 627.09C9.49828 635.573 42.4868 637.006 84.0039 470.231C87.7518 455.175 92.2707 440.379 97.5558 425.88C138.219 314.328 224.268 220.507 354.164 162.711C484.081 104.906 657.876 83.13 874.011 115.681C909.122 120.968 945.354 127.691 982.7 135.926C1232.76 191.069 1540.44 191.602 1757.12 143.639C1816.17 130.57 1868.46 113.896 1911 93.7431L1911 92.7461C1868.45 112.978 1816.04 129.709 1756.83 142.818C1540.32 190.741 1232.88 190.208 982.997 135.106C945.628 126.865 909.365 120.138 874.218 114.843C657.804 82.252 483.757 104.071 353.621 161.971C223.463 219.884 137.243 313.886 96.5016 425.649C91.2117 440.167 86.6857 454.987 82.9307 470.069C41.5945 636.111 8.74393 634.686 -185.768 626.238C-199.665 625.636 -214.395 624.996 -229.998 624.38L-229.998 625.232L-230 625.232Z" fill="#E0EEFF"/>
<path d="M1911 -193.305C1908.23 -195.722 1905.39 -198.149 1902.48 -200.586C1865.24 -231.738 1831.93 -260.157 1802.74 -286L1801.3 -286C1830.65 -259.991 1864.18 -231.383 1901.68 -200.006C1904.88 -197.331 1907.98 -194.67 1911 -192.022L1911 -193.307L1911 -193.305ZM-230 655.05C-217.933 655.303 -206.406 655.572 -195.4 655.831C0.141652 660.414 33.1659 661.187 69.167 493.641C72.4152 478.524 76.4439 463.639 81.2531 449.036C118.223 336.706 201.145 241.198 329.09 180.83C457.058 120.449 630.075 95.2137 847.214 123.438C882.482 128.024 918.926 134.02 956.536 141.507C1208.33 191.638 1515.93 186.029 1730.96 133.759C1803.33 116.164 1865.23 93.2791 1911 65.452L1911 64.3716C1865.27 92.3178 1803.24 115.293 1730.63 132.945C1515.78 185.175 1208.42 190.776 956.805 140.681C919.183 133.19 882.708 127.189 847.393 122.598C629.975 94.3356 456.703 119.621 328.521 180.102C200.315 240.594 117.226 336.287 80.187 448.824C75.3778 463.437 71.342 478.345 68.0843 493.499C32.2402 660.314 -0.645995 659.543 -195.372 654.979C-206.39 654.722 -217.924 654.451 -230 654.199L-230 655.05Z" fill="#E0EEFF"/>
<path d="M1911 -171.757C1898.12 -185.442 1882.74 -199.463 1864.69 -213.807C1832.01 -239.776 1802.26 -263.803 1775.56 -286L1774.08 -286C1800.97 -263.629 1830.95 -239.405 1863.91 -213.21C1882.34 -198.566 1897.98 -184.264 1911 -170.315L1911 -171.757ZM-15.9082 665.556C22.8771 645.266 39.2274 603.282 54.89 516.783C57.6384 501.601 61.1746 486.643 65.4959 471.954C98.7462 358.925 178.494 261.791 304.404 198.889C430.338 135.974 602.467 107.293 820.463 131.172C855.877 135.053 892.504 140.319 930.344 147.054C1183.72 192.142 1491.03 180.397 1704.26 123.85C1786.56 102.024 1854.86 73.5189 1900.66 39.0288C1904.24 36.3279 1907.69 33.5914 1911 30.8167L1911 29.5579C1907.46 32.5538 1903.76 35.5069 1899.89 38.4196C1854.22 72.8169 1786.06 101.258 1703.9 123.046C1490.85 179.547 1183.77 191.283 930.587 146.225C892.725 139.489 856.064 134.216 820.613 130.332C602.336 106.419 429.955 135.155 303.812 198.175C177.645 261.206 97.7397 358.525 64.4275 471.766C60.1014 486.474 56.5581 501.459 53.8049 516.671C38.0067 603.908 21.4969 645.661 -18.2188 665.561L-15.9082 665.561L-15.9082 665.556Z" fill="#E0EEFF"/>
<path d="M1911 -139.133C1894.47 -166.96 1866.77 -196.243 1826.27 -226.817C1798.45 -247.821 1772.7 -267.525 1749.06 -286L1747.52 -286C1771.38 -267.341 1797.38 -247.436 1825.51 -226.205C1866.73 -195.087 1894.66 -165.323 1911 -137.089L1911 -139.133ZM3.10333 665.556C21.888 640.471 32.0775 601.29 41.1724 539.658C43.4235 524.417 46.4622 509.39 50.2958 494.627C79.8053 380.972 156.322 282.28 280.114 216.883C403.927 151.477 575.052 119.369 793.767 138.889C829.309 142.061 866.1 146.597 904.138 152.572C1158.92 192.587 1465.74 174.712 1677.03 113.929C1758.58 90.4688 1825.92 60.6094 1870.56 25.2151C1887.44 11.8393 1901.06 -2.32412 1911 -17.2348L1911 -19.1099C1901.04 -3.73048 1887.14 10.8637 1869.78 24.6178C1825.26 59.917 1758.06 89.7097 1676.65 113.127C1465.53 173.862 1158.94 191.726 904.352 151.737C866.267 145.754 829.447 141.216 793.891 138.042C574.898 118.493 403.523 150.663 279.5 216.179C155.456 281.709 78.7869 380.591 49.2226 494.46C45.3795 509.259 42.3336 524.308 40.0825 539.561C30.9495 601.457 20.7053 640.609 1.68746 665.556L3.10333 665.556Z" fill="#E0EEFF"/>
<path d="M6.58551 665.559C16.6227 640.985 22.8049 607.679 27.9925 562.25C29.7367 546.985 32.2805 531.906 35.631 517.052C61.3808 402.847 134.616 302.659 256.209 234.814C377.826 166.957 547.837 131.441 767.121 146.592C802.732 149.052 839.659 152.85 877.904 158.066C1133.91 192.985 1440.05 168.989 1649.26 104.006C1730.02 78.9253 1796.35 47.7334 1839.81 11.461C1883.33 -24.8638 1903.93 -66.2809 1893.15 -111.762C1883.73 -151.523 1850.3 -194.371 1787.22 -239.605C1764.56 -255.853 1743.24 -271.301 1723.27 -286L1721.68 -286C1741.9 -271.111 1763.49 -255.455 1786.47 -238.979C1849.37 -193.876 1882.69 -151.19 1892.07 -111.61C1902.79 -66.4237 1882.29 -25.2493 1839.01 10.8779C1795.66 47.0552 1729.47 78.1805 1648.86 103.216C1439.81 168.146 1133.91 192.121 878.092 157.229C839.844 152.013 802.884 148.21 767.214 145.747C547.645 130.577 377.386 166.152 255.569 234.121C133.726 302.104 60.348 402.486 34.5483 516.907C31.2002 531.76 28.6492 546.866 26.9026 562.177C21.6984 607.734 15.49 641.039 5.36715 665.556L6.58551 665.556L6.58551 665.559Z" fill="#E0EEFF"/>
<path d="M4.12893 665.559C9.28316 643.997 12.6813 617.441 15.3464 584.547C16.5862 569.246 18.6326 554.117 21.4882 539.211C43.4615 424.53 113.365 322.914 232.681 252.665C352.019 182.403 520.8 143.506 740.511 154.273C776.206 156.022 813.247 159.082 851.639 163.532C1108.72 193.33 1413.96 163.233 1620.97 94.0929C1700.86 67.408 1766.14 34.9025 1808.39 -2.22895C1850.7 -39.4104 1869.93 -81.2249 1857.65 -126.473C1846.91 -166.034 1812.09 -208.199 1747.53 -252.159C1730.35 -263.858 1713.93 -275.125 1698.25 -286L1696.61 -286C1712.57 -274.928 1729.29 -263.446 1746.81 -251.519C1811.17 -207.687 1845.89 -165.682 1856.58 -126.299C1868.78 -81.3391 1849.65 -39.7697 1807.57 -2.79291C1765.44 34.2362 1700.29 66.6703 1620.53 93.3077C1413.69 162.388 1108.69 192.461 851.799 162.685C813.38 158.233 776.308 155.17 740.58 153.419C520.583 142.637 351.557 181.601 232.019 251.98C112.461 322.371 42.4169 424.183 20.4031 539.085C17.5452 554.01 15.4939 569.161 14.2518 584.49C11.5818 617.448 8.17427 644.016 2.98433 665.554L4.12893 665.554L4.12893 665.559Z" fill="#E0EEFF"/>
<path d="M1103.06 -286C990.267 -204.658 911.159 -109.583 883.682 -16.1568C864.5 49.0659 870.135 100.58 874.608 141.471C886.221 247.623 889.952 281.761 423.479 298.342C100.138 309.836 -105.639 326.521 -220.617 378.994C-223.818 380.455 -226.937 381.95 -230 383.465L-230 385.333C-226.616 383.639 -223.147 381.981 -219.589 380.358C-104.975 328.051 100.547 311.406 423.572 299.924C892.16 283.27 888.386 248.732 876.636 141.338C872.174 100.554 866.553 49.1777 885.664 -15.7975C913.182 -109.366 992.703 -204.615 1106.07 -285.998L1103.06 -285.998L1103.06 -286Z" fill="#E0EEFF"/>
<path d="M1173.77 -286C1043.14 -202.25 949.978 -100.212 917.71 0.77171C896.965 65.7018 901.357 117.285 904.848 158.24C913.907 264.54 916.82 298.725 450.026 308.52C126.463 315.309 -79.6753 328.999 -195.898 379.787C-208.277 385.198 -219.627 391.03 -230 397.315L-230 399.33C-219.373 392.796 -207.686 386.754 -194.901 381.167C-79.0494 330.538 126.837 316.884 450.081 310.102C918.988 300.265 916.042 265.677 906.878 158.133C903.397 117.289 899.013 65.8445 919.683 1.15482C952.003 -99.9977 1045.68 -202.235 1176.98 -286L1173.77 -286Z" fill="#E0EEFF"/>
<path d="M1249.77 -286C1098.98 -200.788 989.439 -91.4335 951.76 17.7264C929.456 82.3447 932.609 133.982 935.117 174.978C941.616 281.39 943.707 315.613 476.756 318.616C153.089 320.698 -53.3425 331.388 -170.764 380.477C-193.897 390.147 -213.559 401.31 -230 414.172L-230 416.444C-213.409 403.19 -193.423 391.746 -169.803 381.869C-52.7547 332.934 153.424 322.276 476.775 320.196C945.837 317.179 943.724 282.558 937.147 174.895C934.648 134.008 931.502 82.5042 953.723 18.1309C991.471 -91.2217 1101.64 -200.815 1253.23 -286L1249.77 -286Z" fill="#E0EEFF"/>
<path d="M1332.46 -286C1158.63 -200.629 1029.69 -83.4594 985.836 34.7074C961.985 98.9878 963.896 150.663 965.414 191.69C969.355 298.183 970.618 332.43 503.679 328.642C180.014 326.015 -26.6385 333.701 -145.219 381.074C-181.416 395.535 -209.393 413.682 -230 436.333L-230 439.144C-209.421 415.793 -181.142 397.203 -144.284 382.476C-26.0793 335.252 180.319 327.595 503.663 330.217C972.712 334.022 971.43 299.375 967.442 191.643C965.928 150.725 964.02 99.1901 987.787 35.1452C1031.73 -83.2714 1161.48 -200.722 1336.28 -286L1332.46 -286Z" fill="#E0EEFF"/>
<path d="M1424.07 -285.998C1410.29 -280.253 1396.74 -274.314 1383.44 -268.189C1202.97 -185.076 1067.43 -67.8325 1019.93 51.724C994.541 115.645 995.21 167.34 995.743 208.381C997.121 314.909 997.563 349.171 530.798 338.591C207.252 331.257 0.449297 335.937 -119.245 381.576C-172.594 401.917 -208.63 430.368 -229.992 469.455L-229.992 473.696C-209.066 433.08 -172.796 403.761 -118.343 382.999C0.977571 337.501 207.525 332.849 530.748 340.173C999.622 350.801 999.177 316.142 997.78 208.367C997.249 167.435 996.583 115.881 1021.88 52.1904C1069.23 -66.9972 1204.43 -183.915 1384.48 -266.832C1398.84 -273.445 1413.49 -279.837 1428.4 -286L1424.07 -286L1424.07 -285.998Z" fill="#E0EEFF"/>
<path d="M-230 643.659C-229.272 650.798 -228.413 658.096 -227.423 665.556L-225.381 665.556C-227.554 649.213 -229.105 633.646 -230 618.828L-230 643.659ZM1528.64 -286C1492.88 -273.869 1458.3 -260.414 1425.18 -245.804C1242.74 -165.33 1104.41 -50.0782 1054.05 68.7667C1027.12 132.307 1026.55 184.004 1026.09 225.045C1024.91 331.576 1024.53 365.837 558.101 348.471C234.79 336.435 27.9117 338.105 -92.8631 381.997C-176.673 412.454 -219.023 463.156 -230 543.566L-230 563.49C-223.511 472.108 -181.696 416.026 -92.0016 383.43C28.39 339.676 235.014 338.027 558.003 350.051C1026.54 367.496 1026.93 332.835 1028.12 225.06C1028.58 184.13 1029.15 132.574 1055.98 69.2641C1106.18 -49.2144 1244.17 -164.145 1426.18 -244.431C1460.56 -259.593 1496.5 -273.519 1533.72 -286L1528.64 -286Z" fill="#E0EEFF"/>
<path d="M1655.24 -286C1588.99 -269.366 1525.69 -248.128 1466.82 -223.278C1282.47 -145.472 1141.4 -32.2525 1088.19 85.8428C1059.73 148.986 1057.92 200.661 1056.47 241.688C1052.73 348.183 1051.53 382.433 585.597 358.289C262.632 341.551 55.7509 340.211 -66.0566 382.34C-187.631 424.385 -224.472 509.547 -207.227 665.556L-205.188 665.556C-222.38 510.239 -185.87 425.506 -65.2285 383.782C56.1959 341.787 262.825 343.143 585.469 359.862C1053.51 384.118 1054.73 349.47 1058.51 241.731C1059.95 200.811 1061.76 149.269 1090.1 86.3687C1143.15 -31.3578 1283.88 -144.261 1467.79 -221.886C1528.35 -247.45 1593.61 -269.178 1661.95 -285.998L1655.24 -285.998L1655.24 -286Z" fill="#E0EEFF"/>
<path d="M1839.34 -286C1721.41 -271.13 1608.7 -241.106 1508.33 -200.612C1322.16 -125.502 1178.38 -14.3531 1122.34 102.95C1092.38 165.662 1089.32 217.304 1086.89 258.305C1080.59 364.729 1078.56 398.954 613.293 368.036C290.784 346.605 83.9674 342.258 -38.8324 382.604C-161.88 423.034 -200.586 508.145 -186.632 665.556L-184.593 665.556C-198.507 508.854 -160.133 424.181 -38.0352 384.06C84.3791 343.84 290.936 348.2 613.119 369.609C1080.49 400.665 1082.54 366.042 1088.92 258.377C1091.34 217.488 1094.39 165.983 1124.25 103.497C1180.11 -13.4345 1323.53 -124.274 1509.27 -199.208C1613.13 -241.109 1730.22 -271.767 1852.62 -286L1839.34 -286Z" fill="#E0EEFF"/>
<path d="M1911 -261.211C1782.56 -249.655 1659.11 -219.937 1549.74 -177.81C1361.79 -105.42 1215.37 3.61839 1156.52 120.084C1125.06 182.349 1120.76 233.939 1117.34 274.896C1108.48 381.21 1105.63 415.398 641.188 377.719C319.257 351.601 112.583 344.248 -11.1708 382.805C-135.215 421.454 -175.949 506.035 -165.738 663.737C-165.698 664.343 -165.665 664.95 -165.629 665.557L-163.592 665.557C-163.63 664.924 -163.663 664.291 -163.704 663.658C-173.862 506.735 -133.469 422.615 -10.4093 384.273C112.94 345.842 319.36 353.205 640.978 379.295C1107.52 417.145 1110.4 382.555 1119.37 275.001C1122.77 234.155 1127.06 182.708 1158.41 120.664C1217.08 4.56545 1363.14 -104.168 1550.65 -176.39C1659.75 -218.414 1782.88 -248.066 1911 -259.617L1911 -261.208L1911 -261.211Z" fill="#E0EEFF"/>
<path d="M1911 -229.042C1797.79 -216.868 1688.99 -190.837 1591.04 -154.87C1401.38 -85.2255 1252.36 21.6643 1190.71 137.251C1157.76 199.055 1152.22 250.569 1147.82 291.467C1136.41 397.633 1132.74 431.771 669.282 387.346C348.034 356.552 141.574 346.191 16.916 382.941C-108.037 419.778 -150.797 503.754 -144.381 661.577C-144.326 662.905 -144.281 664.231 -144.243 665.551L-142.206 665.551C-142.244 664.211 -142.29 662.869 -142.344 661.523C-148.729 504.48 -106.319 420.961 17.6394 384.417C141.896 347.785 348.101 358.148 669.034 388.914C1134.59 433.544 1138.31 399.002 1149.85 291.595C1154.24 250.802 1159.76 199.424 1192.6 137.856C1254.04 22.628 1402.69 -83.9619 1591.9 -153.444C1689.6 -189.319 1798.1 -215.288 1911 -227.45L1911 -229.047L1911 -229.042Z" fill="#E0EEFF"/>
<path d="M1911 -196.656C1812.87 -184.437 1718.49 -161.969 1632.19 -131.802C1440.89 -64.9281 1289.33 39.7748 1224.92 154.448C1190.48 215.761 1183.71 267.187 1178.33 308.014C1164.36 413.995 1159.87 448.078 697.563 396.919C377.113 361.458 170.939 348.096 45.4141 383.029C-80.4007 418.042 -125.168 501.379 -122.548 659.268C-122.513 661.372 -122.503 663.466 -122.508 665.555L-120.476 665.555C-120.473 663.459 -120.483 661.358 -120.516 659.247C-123.127 502.14 -78.7112 419.251 46.1066 384.514C171.217 349.698 377.137 363.059 697.278 398.487C1161.68 449.879 1166.22 415.396 1180.35 308.176C1185.72 267.456 1192.47 216.163 1226.78 155.084C1290.99 40.7695 1442.17 -63.6383 1633.03 -130.355C1719.07 -160.434 1813.17 -182.847 1910.99 -195.052L1910.99 -196.656L1911 -196.656Z" fill="#E0EEFF"/>
<path d="M1911 -164.037C1827.8 -152.303 1747.62 -133.304 1673.23 -108.589C1480.36 -44.5111 1326.31 57.9716 1259.15 171.686C1223.25 232.485 1215.24 283.804 1208.88 324.547C1192.37 430.305 1187.06 464.316 726.059 406.442C406.516 366.326 200.701 349.969 74.3602 383.069C-52.2756 416.248 -99.0421 498.921 -100.218 656.817C-100.239 659.747 -100.301 662.659 -100.398 665.558L-98.3615 665.558C-98.2663 662.662 -98.2021 659.751 -98.1807 656.824C-97.0123 499.706 -50.617 417.481 75.0146 384.566C200.941 351.573 406.504 367.928 725.738 408.003C1188.82 466.139 1194.19 431.73 1210.9 324.735C1217.24 284.101 1225.23 232.918 1261 172.345C1327.94 58.9877 1481.61 -43.2071 1674.04 -107.138C1748.19 -131.771 1828.09 -150.716 1911 -162.433L1911 -164.039L1911 -164.037Z" fill="#E0EEFF"/>
<path d="M1911 -131.271C1842.56 -120.51 1776.41 -104.881 1714.15 -85.2612C1519.77 -23.9981 1363.28 76.2263 1293.4 188.941C1256.04 249.207 1246.8 300.402 1239.46 341.046C1220.41 446.546 1214.28 480.475 754.76 415.906C436.234 371.151 230.843 351.804 103.736 383.058C-23.6729 414.388 -72.4192 496.366 -77.3902 654.222C-77.5092 658.027 -77.6948 661.801 -77.9375 665.551L-75.9054 665.551C-75.6626 661.813 -75.4794 658.048 -75.3604 654.258C-70.4132 497.184 -22.0476 415.647 104.353 384.564C231.057 353.408 436.189 372.747 754.398 417.46C1216 482.321 1222.2 447.998 1241.47 341.265C1248.79 300.731 1258.01 249.671 1295.23 189.629C1364.89 77.2638 1520.99 -22.6774 1714.92 -83.7977C1776.94 -103.346 1842.83 -118.918 1911 -129.66L1911 -131.273L1911 -131.271Z" fill="#E0EEFF"/>
<path d="M1911 -98.3257C1857.12 -88.9928 1804.82 -76.6784 1754.93 -61.7915C1559.11 -3.36494 1400.24 94.5632 1327.66 206.243C1288.86 265.957 1278.38 317.007 1270.07 357.539C1248.49 462.744 1241.55 496.577 783.656 425.336C466.259 375.954 261.37 353.624 133.537 383.027C5.39529 412.498 -45.3142 493.752 -54.0783 651.509C-54.3401 656.237 -54.7018 660.92 -55.1563 665.56L-53.117 665.56C-52.6672 660.939 -52.3079 656.277 -52.0461 651.571C-43.3248 494.597 6.99203 413.778 134.118 384.54C261.551 355.23 466.178 377.551 783.257 426.883C1243.22 498.445 1250.25 464.217 1272.08 357.786C1280.37 317.366 1290.82 266.45 1329.48 206.962C1401.83 95.6269 1560.3 -2.02759 1755.66 -60.3162C1805.32 -75.1364 1857.38 -87.4009 1911 -96.7075L1911 -98.328L1911 -98.3257Z" fill="#E0EEFF"/>
</g>
<defs>
<clipPath id="clip0_411_3127">
<rect width="951.556" height="2141" fill="white" transform="matrix(-4.37114e-08 1 1 4.37114e-08 -230 -286)"/>
</clipPath>
</defs>
</svg>
